<?xml version="1.0" encoding="UTF-8"?>
<svg version="1.1" xmlns="http://www.w3.org/2000/svg" width="512" height="512">
<path d="M0 0 C1.19286621 0.00161133 2.38573242 0.00322266 3.61474609 0.00488281 C12.85528927 0.13271889 23.3937859 0.47320173 31.58460999 5.3571167 C38.88944305 9.46198246 46.83147718 8.91465133 54.95287514 8.8608551 C57.65604144 8.84347507 60.35814971 8.85116182 63.06132507 8.8651123 C68.79095727 8.89034136 74.52033493 8.88495546 80.25 8.875 C86.91003209 8.86346663 93.56954659 8.86457347 100.22951317 8.89906311 C102.89095996 8.90615718 105.55158507 8.8894877 108.21296692 8.87194824 C109.84160812 8.8776541 111.47024594 8.8844704 113.09887695 8.89257812 C113.837117 8.88126358 114.57535706 8.86994904 115.33596802 8.85829163 C118.79778736 8.89954299 120.60342544 9.11280219 123.36491394 11.28015137 C126.39483697 15.31632483 126.06665888 18.78720875 126.03515625 23.6640625 C126.03303383 24.89169815 126.03303383 24.89169815 126.03086853 26.14413452 C126.0252629 28.76279325 126.01270948 31.38136704 126 34 C125.99498572 35.77343627 125.99042269 37.54687387 125.98632812 39.3203125 C125.97529164 43.67190782 125.95802325 48.0234395 125.9375 52.375 C127.10783736 52.37085193 127.10783736 52.37085193 128.30181789 52.36662006 C147.3069756 52.30029933 166.31211014 52.2506898 185.31735897 52.21956348 C194.50824585 52.20411004 203.69905536 52.18304968 212.88989258 52.14868164 C220.90281606 52.11873261 228.91568351 52.09941393 236.92866141 52.09273452 C241.16949596 52.08883157 245.41017023 52.07969096 249.65095329 52.05780983 C253.64739822 52.03735763 257.64361772 52.03118374 261.64011002 52.03567696 C263.10215673 52.03485564 264.56421144 52.02894212 266.02621269 52.01738358 C277.45102576 51.9315349 285.97128206 52.94417573 294.92578125 60.3515625 C302.50139006 67.97130107 304.15652134 77.3658016 304.20964891 87.68586427 C304.20586958 88.91542948 304.20209026 90.14499469 304.19819641 91.41181946 C304.20202196 92.72973219 304.20584751 94.04764491 304.20978898 95.40549439 C304.22005973 99.05311123 304.21788952 102.70062968 304.21360838 106.34825456 C304.21113946 110.28633899 304.22015745 114.22439982 304.22764587 118.16247559 C304.24039066 125.87387983 304.24218681 133.58524925 304.23984561 141.29666225 C304.2380619 147.56596 304.23981324 153.83524719 304.24407005 160.10454369 C304.24466524 160.99714971 304.24526043 161.88975573 304.24587366 162.80941042 C304.24708542 164.62281337 304.24829956 166.43621632 304.24951603 168.24961927 C304.26039091 185.2535795 304.25822944 202.2575199 304.25213119 219.26148125 C304.24696317 234.80953498 304.25821453 250.35752605 304.27722941 265.90556739 C304.29661256 281.87743848 304.3048629 297.84927994 304.30110615 313.82116288 C304.2991947 322.78525396 304.30167621 331.74929171 304.31582069 340.71337318 C304.32774161 348.3454175 304.32913148 355.97737566 304.31703053 363.60942117 C304.31114657 367.50130178 304.31002891 371.39302487 304.32203293 375.28489494 C304.33290783 378.85223821 304.32976952 382.41929274 304.31577124 385.98662259 C304.31188313 387.87872274 304.32265838 389.77083578 304.33406812 391.66290551 C304.26158275 403.13668114 302.1554798 412.05840444 293.9375 420.375 C284.38106997 428.21127262 273.44680331 427.65852887 261.69921875 427.60205078 C260.05273953 427.60148604 258.40625981 427.60180446 256.75978088 427.60293579 C252.30787272 427.60350784 247.85607309 427.59177747 243.40419006 427.57778788 C238.74505163 427.56525588 234.0859105 427.56410807 229.42675781 427.56173706 C220.61196607 427.55552954 211.79722414 427.53912859 202.9824543 427.51903808 C192.9437727 427.4966564 182.90508868 427.48567995 172.86638832 427.47564721 C152.22339703 427.45476171 131.58045341 427.41919539 110.9375 427.375 C110.9375 433.315 110.9375 439.255 110.9375 445.375 C112.18772949 445.35405273 113.43795898 445.33310547 114.72607422 445.31152344 C119.40385295 445.23863835 124.08158239 445.19302508 128.75976562 445.15527344 C130.77710435 445.13526784 132.7943859 445.1080544 134.81152344 445.07324219 C137.72605573 445.02423423 140.63981559 445.00192036 143.5546875 444.984375 C144.44364716 444.96372986 145.33260681 444.94308472 146.24850464 444.92181396 C156.62882644 444.91816787 164.29354743 448.78513553 171.734375 455.86328125 C178.21561226 463.25235139 180.08200432 470.92465287 180.17578125 480.5 C180.183853 481.28391113 180.19192474 482.06782227 180.20024109 482.87548828 C180.21404113 484.52960014 180.22478145 486.18373999 180.23266602 487.83789062 C180.24422258 489.52938172 180.26473212 491.22083532 180.29418945 492.91210938 C180.33678405 495.3583245 180.35301924 497.80346054 180.36328125 500.25 C180.38078934 501.0042627 180.39829742 501.75852539 180.41633606 502.53564453 C180.403253 505.69971753 180.25017752 507.89937542 178.49172974 510.57421112 C174.65230345 513.2810922 171.19339988 512.92867456 166.59985352 512.88293457 C165.64370683 512.88917453 164.68756014 512.8954145 163.70243931 512.90184355 C160.49017938 512.91783161 157.27867216 512.9051463 154.06640625 512.89257812 C151.7669124 512.89799664 149.46742201 512.90511777 147.16793823 512.91381836 C140.91595356 512.93208661 134.66423229 512.92496959 128.41224289 512.91230202 C121.87711616 512.90219255 115.34201236 512.91156198 108.80688477 512.91784668 C97.12764613 512.92639628 85.44851855 512.91314572 73.76929915 512.89280933 C63.17784566 512.87493804 52.58656752 512.87804206 41.99511719 512.89648438 C29.69834093 512.91788602 17.4016765 512.9258609 5.10488415 512.91403532 C-1.4054517 512.90779112 -7.91566673 512.90699027 -14.42599487 512.92018127 C-20.54588757 512.93171448 -26.66544829 512.92376003 -32.78530502 512.90060425 C-35.03475263 512.89530366 -37.28422806 512.89685385 -39.5336647 512.90565491 C-42.59777474 512.9165404 -45.66081233 512.90293098 -48.72485352 512.88293457 C-49.62095557 512.89185746 -50.51705763 512.90078034 -51.44031429 512.90997362 C-57.41466714 512.83403223 -57.41466714 512.83403223 -60.61375427 510.56726837 C-62.74506098 507.34213632 -62.63508572 504.23458583 -62.59375 500.49609375 C-62.59949036 499.34512962 -62.59949036 499.34512962 -62.60534668 498.1709137 C-62.60806561 496.54613942 -62.60070558 494.92132136 -62.58398438 493.29663086 C-62.56277683 490.84450833 -62.58367605 488.39538474 -62.609375 485.94335938 C-62.63464609 472.975491 -60.87290311 463.2224645 -51.578125 453.54296875 C-46.07096256 448.79688932 -39.1352195 445.23988939 -31.7746582 445.26147461 C-30.91399246 445.26155014 -30.05332672 445.26162567 -29.1665802 445.26170349 C-28.24149155 445.26686478 -27.31640289 445.27202606 -26.36328125 445.27734375 C-25.41309616 445.2787587 -24.46291107 445.28017365 -23.4839325 445.28163147 C-20.44758971 445.28723125 -17.41132052 445.29978368 -14.375 445.3125 C-12.31705836 445.31751503 -10.25911556 445.32207793 -8.20117188 445.32617188 C-3.15491954 445.3372006 1.89127775 445.35446507 6.9375 445.375 C6.9375 439.435 6.9375 433.495 6.9375 427.375 C3.83252609 427.38499275 3.83252609 427.38499275 0.66482544 427.39518738 C-18.84565126 427.45653755 -38.35611522 427.50115882 -57.86666679 427.53043652 C-67.8971526 427.54588921 -77.92756751 427.56694815 -87.95800781 427.60131836 C-96.70304288 427.63126966 -105.4480266 427.65058661 -114.19311154 427.65726548 C-118.82129916 427.66116804 -123.44933989 427.6703062 -128.07748032 427.69219017 C-132.43916864 427.71264593 -136.80065039 427.71881552 -141.16238213 427.71432304 C-142.75785001 427.71514419 -144.35332524 427.72105551 -145.94875145 427.73261642 C-157.76462925 427.81399336 -167.74177943 427.22375715 -177.0859375 419.3984375 C-185.69298408 410.58727124 -186.35906274 400.00693279 -186.32319641 388.33818054 C-186.32702196 387.02026781 -186.33084751 385.70235509 -186.33478898 384.34450561 C-186.34505973 380.69688877 -186.34288952 377.04937032 -186.33860838 373.40174544 C-186.33613946 369.46366101 -186.34515745 365.52560018 -186.35264587 361.58752441 C-186.36539066 353.87612017 -186.36718681 346.16475075 -186.36484561 338.45333775 C-186.3630619 332.18404 -186.36481324 325.91475281 -186.36907005 319.64545631 C-186.36966524 318.75285029 -186.37026043 317.86024427 -186.37087366 316.94058958 C-186.37208542 315.12718663 -186.37329956 313.31378368 -186.37451603 311.50038073 C-186.38539091 294.4964205 -186.38322944 277.4924801 -186.37713119 260.48851875 C-186.37196317 244.94046502 -186.38321453 229.39247395 -186.40222941 213.84443261 C-186.42161256 197.87256152 -186.4298629 181.90072006 -186.42610615 165.92883712 C-186.4241947 156.96474604 -186.42667621 148.00070829 -186.44082069 139.03662682 C-186.45274161 131.4045825 -186.45413148 123.77262434 -186.44203053 116.14057883 C-186.43614657 112.24869822 -186.43502891 108.35697513 -186.44703293 104.46510506 C-186.45790783 100.89776179 -186.45476952 97.33070726 -186.44077124 93.76337741 C-186.43688313 91.87127726 -186.44765838 89.97916422 -186.45906812 88.08709449 C-186.38663597 76.62174317 -184.28592419 67.68049429 -176.0625 59.375 C-169.04399565 53.72158785 -161.57972774 52.05435014 -152.72265625 52.1796875 C-151.95569931 52.1825174 -151.18874237 52.18534729 -150.39854431 52.18826294 C-147.97386379 52.19936525 -145.54956691 52.22445033 -143.125 52.25 C-141.4707085 52.2600427 -139.81641115 52.26916628 -138.16210938 52.27734375 C-134.12876077 52.29927183 -130.0956952 52.33373157 -126.0625 52.375 C-126.07821045 50.72516113 -126.07821045 50.72516113 -126.09423828 49.04199219 C-126.13046906 44.95690166 -126.15341169 40.87182532 -126.17236328 36.78662109 C-126.18241384 35.01934418 -126.19605642 33.25208387 -126.21337891 31.48486328 C-126.23766885 28.94299215 -126.24899255 26.40134111 -126.2578125 23.859375 C-126.26813507 23.07069031 -126.27845764 22.28200562 -126.28909302 21.46942139 C-126.29056675 14.24555859 -126.29056675 14.24555859 -124.0625 11.375 C-120.39233917 8.87582033 -116.608354 9.10867054 -112.33496094 9.15136719 C-111.56028473 9.15095932 -110.78560852 9.15055145 -109.98745728 9.15013123 C-108.30581984 9.14993384 -106.62417779 9.15396781 -104.94255829 9.16173553 C-102.26609465 9.17199296 -99.59009467 9.1665531 -96.91363525 9.15631104 C-89.30367077 9.12841354 -81.69396031 9.11558401 -74.08398438 9.14501953 C-69.42359046 9.16191361 -64.76401942 9.14917033 -60.10370636 9.11856842 C-58.34180279 9.11252855 -56.57982418 9.11715904 -54.81798553 9.13344574 C-44.0332983 9.22885739 -35.2862555 8.10813253 -25.33927917 3.79367065 C-17.03977994 0.20043004 -8.95798248 -0.01256203 0 0 Z " fill="#010001" transform="translate(197.0625,-0.375)"/>
<path d="M0 0 C4.62 0 9.24 0 14 0 C14.00364563 1.89538513 14.00729126 3.79077026 14.01104736 5.74359131 C14.04793815 23.57841866 14.10540769 41.41307403 14.18390274 59.2477684 C14.22373062 68.41746061 14.25610402 77.58706653 14.27099609 86.75683594 C14.28399323 94.74820167 14.3109081 102.73937785 14.35461307 110.73063684 C14.3772717 114.96291377 14.39290806 119.19495652 14.39188385 123.4272995 C14.39113982 127.40993384 14.4089863 131.39204965 14.44116783 135.37454987 C14.44969517 136.83704769 14.45139757 138.29960349 14.44580269 139.76211548 C14.43918505 141.75759191 14.45940476 143.75310377 14.48101807 145.74847412 C14.48470524 146.86568722 14.48839241 147.98290031 14.49219131 149.13396835 C14.8282155 152.03861732 14.8282155 152.03861732 16.43459702 154.35897446 C20.36061911 156.87035477 23.99475907 156.55229117 28.56542969 156.50793457 C29.54607769 156.51417453 30.52672569 156.5204145 31.5370903 156.52684355 C34.83226109 156.54283391 38.12669836 156.53014534 41.421875 156.51757812 C43.78048129 156.52299654 46.1390842 156.53011761 48.49768066 156.53881836 C54.91081505 156.55708785 61.32369267 156.54996907 67.73683167 156.53730202 C71.74037146 156.53019867 75.7438936 156.53152904 79.74743652 156.53526306 C80.74402129 156.53618246 80.74402129 156.53618246 81.76073909 156.53712043 C83.11039004 156.53839932 84.46004098 156.53969617 85.80969191 156.5410108 C98.46852362 156.55241986 111.12723951 156.53929782 123.78605223 156.51780933 C134.65039491 156.49993801 145.51456665 156.50304203 156.37890625 156.52148438 C168.99210551 156.54288538 181.60520324 156.5513212 194.21841812 156.53903532 C195.56313322 156.53776111 196.90784834 156.53650363 198.25256348 156.53526306 C199.24502897 156.53433741 199.24502897 156.53433741 200.25754428 156.53339306 C204.92250678 156.52993782 209.58736954 156.5359672 214.25231934 156.54518127 C220.52979792 156.55671369 226.80695284 156.54876144 233.08439636 156.52560425 C235.39189618 156.52030324 237.69942311 156.52185456 240.00691223 156.53065491 C243.14983596 156.5415387 246.29171376 156.52793288 249.43457031 156.50793457 C250.35401806 156.51685746 251.27346581 156.52578034 252.2207756 156.53497362 C256.03141188 156.48773877 258.30914592 156.44192246 261.56540298 154.35897446 C263.41991915 151.30950745 263.50721303 149.31445157 263.51898193 145.74847412 C263.53289474 144.46402405 263.54680756 143.17957397 263.56114197 141.85620117 C263.556429 140.43505732 263.55133505 139.0139147 263.54589844 137.59277344 C263.55463348 136.0946546 263.56511902 134.5965451 263.57722473 133.09844971 C263.60511428 129.03262647 263.60848878 124.96710721 263.60750484 120.9012022 C263.61063143 116.65169636 263.63624429 112.40232793 263.65948486 108.15289307 C263.70006799 100.10652034 263.72039098 92.06022871 263.73345876 84.01376939 C263.75228662 73.14023556 263.80236311 62.26684874 263.85070229 51.39341354 C263.92603588 34.26228331 263.95957685 17.13133053 264 0 C307.56 0 351.12 0 396 0 C396 92.73 396 185.46 396 281 C265.32 281 134.64 281 0 281 C0 188.27 0 95.54 0 0 Z " fill="#E4E4FA" transform="translate(58,99)"/>
<path d="M0 0 C0.76837189 0.00565979 1.53674377 0.01131958 2.32839966 0.01715088 C4.76385871 0.03940327 7.19780407 0.08957459 9.6328125 0.140625 C11.2916453 0.16070458 12.95050134 0.1789528 14.609375 0.1953125 C18.65989538 0.2358177 22.70717557 0.31411769 26.7578125 0.390625 C26.7578125 5.670625 26.7578125 10.950625 26.7578125 16.390625 C25.07171875 16.41640625 23.385625 16.4421875 21.6484375 16.46875 C19.43486981 16.52502714 17.22132914 16.58237456 15.0078125 16.640625 C13.89664063 16.65480469 12.78546875 16.66898438 11.640625 16.68359375 C10.57070313 16.71582031 9.50078125 16.74804688 8.3984375 16.78125 C6.92165527 16.8126709 6.92165527 16.8126709 5.41503906 16.84472656 C1.99861081 17.54659477 0.94332852 18.70791772 -1.2421875 21.390625 C-1.83652089 23.85096791 -1.83652089 23.85096791 -1.74555206 26.57247162 C-1.75598305 27.62647109 -1.76641404 28.68047055 -1.77716112 29.7664094 C-1.76377679 31.50160279 -1.76377679 31.50160279 -1.75012207 33.27185059 C-1.75636203 34.50159528 -1.762602 35.73133998 -1.76903105 36.99834967 C-1.78224387 40.41377363 -1.77746442 43.8283202 -1.76508617 47.24369121 C-1.7560508 50.92610775 -1.76999785 54.60844658 -1.78100586 58.29084778 C-1.79881193 65.50538796 -1.79494186 72.71976189 -1.7833553 79.93430865 C-1.77432943 85.79660765 -1.77309329 91.65885999 -1.77745056 97.52116394 C-1.77806349 98.35485082 -1.77867643 99.1885377 -1.77930793 100.04748783 C-1.78058681 101.74099578 -1.78188366 103.43450372 -1.7831983 105.12801164 C-1.79461021 121.01587674 -1.78148083 136.90364959 -1.75999683 152.79149956 C-1.74212528 166.43021909 -1.74522922 180.06880245 -1.76367188 193.70751953 C-1.78506782 209.53771346 -1.79351152 225.36782649 -1.78122282 241.19803286 C-1.7799486 242.88538391 -1.77869111 244.57273498 -1.77745056 246.26008606 C-1.77652491 247.50546765 -1.77652491 247.50546765 -1.77558056 248.77600846 C-1.77212382 254.6326897 -1.77796295 260.48931973 -1.78736877 266.34599304 C-1.79857599 273.4813206 -1.79557577 280.6164721 -1.7742458 287.75177944 C-1.763718 291.39383059 -1.75964262 295.03558798 -1.77284241 298.6776371 C-1.7869209 302.62172476 -1.77013505 306.56532917 -1.75012207 310.50939941 C-1.75904496 311.66619501 -1.76796784 312.8229906 -1.77716112 314.0148406 C-1.76673013 315.06884007 -1.75629914 316.12283954 -1.74555206 317.20877838 C-1.74490265 318.11945776 -1.74425324 319.03013715 -1.74358416 319.96841288 C-1.05424576 323.29855839 -0.00683348 324.42739313 2.7578125 326.390625 C6.01272981 326.99148525 6.01272981 326.99148525 9.73565674 326.89398956 C10.7943274 326.90271021 10.7943274 326.90271021 11.87438536 326.91160703 C14.25156113 326.9262649 16.62771369 326.91229573 19.00488281 326.89855957 C20.72140661 326.90316622 22.43792646 326.90951755 24.15443802 326.91746855 C28.88083962 326.93421749 33.60691953 326.92589033 38.33332253 326.91352367 C43.42678672 326.9044982 48.52019439 326.91843044 53.61364746 326.92944336 C63.59547167 326.94725998 73.5771758 326.94337462 83.55900478 326.9317928 C91.66910732 326.92277109 99.77917612 326.92152899 107.88928223 326.92588806 C109.61856236 326.92680746 109.61856236 326.92680746 111.38277745 326.92774543 C113.7245404 326.92902429 116.06630334 326.93032114 118.40806627 326.9316358 C140.38346064 326.9430508 162.35878834 326.92991345 184.33417177 326.90843433 C203.20328333 326.89056253 222.07229647 326.89366638 240.94140625 326.91210938 C262.83643083 326.93349983 284.73139694 326.94195208 306.62643051 326.92966032 C308.95973459 326.92838608 311.29303868 326.9271286 313.62634277 326.92588806 C314.77446985 326.92527096 315.92259692 326.92465386 317.10551572 326.92401806 C325.20890786 326.92055968 333.312263 326.92640399 341.41564941 326.93580627 C351.28664456 326.94700738 361.15751242 326.94402605 371.02849293 326.9226833 C376.06795065 326.91214742 381.10719591 326.90809415 386.14665222 326.92127991 C390.75563784 326.93315724 395.36421309 326.92671867 399.97316122 326.9053697 C401.64469924 326.90088378 403.31627159 326.90321422 404.98778772 326.91287285 C407.25234746 326.92495937 409.51548405 326.91264292 411.77996826 326.89398956 C413.03999035 326.89334015 414.30001244 326.89269074 415.59821701 326.89202166 C418.80855611 326.62229481 418.80855611 326.62229481 421.16246748 324.68303013 C423.06985493 321.9422407 423.25881144 320.52614308 423.26117706 317.20877838 C423.27682355 315.62777918 423.27682355 315.62777918 423.29278612 314.0148406 C423.27940179 312.27964721 423.27940179 312.27964721 423.26574707 310.50939941 C423.27198703 309.27965472 423.278227 308.04991002 423.28465605 306.78290033 C423.29786887 303.36747637 423.29308942 299.9529298 423.28071117 296.53755879 C423.2716758 292.85514225 423.28562285 289.17280342 423.29663086 285.49040222 C423.31443693 278.27586204 423.31056686 271.06148811 423.2989803 263.84694135 C423.28995443 257.98464235 423.28871829 252.12239001 423.29307556 246.26008606 C423.29399496 245.00955574 423.29399496 245.00955574 423.29493293 243.73376217 C423.29621181 242.04025422 423.29750866 240.34674628 423.2988233 238.65323836 C423.31023521 222.76537326 423.29710583 206.87760041 423.27562183 190.98975044 C423.25775028 177.35103091 423.26085422 163.71244755 423.27929688 150.07373047 C423.30069282 134.24353654 423.30913652 118.41342351 423.29684782 102.58321714 C423.2955736 100.89586609 423.29431611 99.20851502 423.29307556 97.52116394 C423.29245846 96.69090955 423.29184136 95.86065516 423.29120556 95.00524154 C423.28774882 89.1485603 423.29358795 83.29193027 423.30299377 77.43525696 C423.31420099 70.2999294 423.31120077 63.1647779 423.2898708 56.02947056 C423.279343 52.38741941 423.27526762 48.74566202 423.28846741 45.1036129 C423.3025459 41.15952524 423.28576005 37.21592083 423.26574707 33.27185059 C423.27466996 32.11505499 423.28359284 30.9582594 423.29278612 29.7664094 C423.28235513 28.71240993 423.27192414 27.65841046 423.26117706 26.57247162 C423.26052765 25.66179224 423.25987824 24.75111285 423.25920916 23.81283712 C422.59631717 20.61045239 421.28055345 19.40592434 418.7578125 17.390625 C415.98946455 16.78737192 415.98946455 16.78737192 412.88592529 16.87164307 C411.68561676 16.85773026 410.48530823 16.84381744 409.24862671 16.82948303 C407.27849106 16.83702858 407.27849106 16.83702858 405.26855469 16.84472656 C403.868956 16.83599081 402.4693673 16.82550501 401.0697937 16.81340027 C397.27255167 16.7855193 393.47563516 16.78213603 389.67830563 16.78312016 C385.70906709 16.77999282 381.73997555 16.75437841 377.77081299 16.73114014 C370.2556799 16.69056271 362.74063362 16.67023537 355.22540784 16.65716624 C346.66917263 16.64130206 338.11308528 16.60288894 329.55693579 16.56257296 C311.95727115 16.48015019 294.35762864 16.42687281 276.7578125 16.390625 C276.7578125 11.110625 276.7578125 5.830625 276.7578125 0.390625 C296.47250634 0.32116972 316.1871656 0.26763684 335.90195656 0.23518848 C345.05593659 0.2197215 354.2098392 0.19863519 363.36376953 0.16430664 C371.34260433 0.13439914 379.32138305 0.11504877 387.30027235 0.10835952 C391.52480281 0.10444955 395.74917285 0.09526409 399.97365189 0.07343483 C403.95120993 0.05304832 407.92854168 0.04679555 411.906147 0.05130196 C413.36461619 0.05047772 414.82309307 0.04452485 416.28151703 0.03300858 C418.2762146 0.0180324 420.27103403 0.02347059 422.26577759 0.02986145 C423.93883185 0.02571338 423.93883185 0.02571338 425.6456852 0.02148151 C430.55114963 0.60334082 433.7762747 2.30297501 437.0703125 5.953125 C439.54882448 9.53319786 439.8841193 11.34040734 439.89203358 15.66437149 C439.89649142 16.78979017 439.90094926 17.91520884 439.90554219 19.07473111 C439.90526565 20.94501796 439.90526565 20.94501796 439.90498352 22.85308838 C439.90866021 24.16955125 439.9123369 25.48601411 439.916125 26.84236979 C439.92616224 30.50897727 439.92986456 34.17556837 439.93251431 37.84218764 C439.93641227 41.79186817 439.94599095 45.74153566 439.95472717 49.69120789 C439.97450607 59.23590338 439.98455963 68.78059996 439.99345496 78.32531083 C439.99783556 82.81738678 440.00320296 87.30946155 440.00844383 91.80153656 C440.02545759 106.7296639 440.03995246 121.6577905 440.04719257 136.58592606 C440.04910255 140.46141816 440.05102287 144.33691026 440.05297852 148.21240234 C440.05346226 149.17566605 440.053946 150.13892976 440.0544444 151.13138327 C440.06274725 166.74066753 440.0880878 182.34987521 440.12055919 197.95912603 C440.15360759 213.97601563 440.17163933 229.99286629 440.17483681 246.00979018 C440.17700398 255.00627243 440.18578276 264.00264303 440.21129799 272.9990921 C440.2329747 280.65992716 440.24107039 288.32062345 440.23133121 295.98148569 C440.22677765 299.89111584 440.22873356 303.80045949 440.24809265 307.71005058 C440.26566247 311.28916664 440.26477753 314.8677859 440.24919536 318.44690678 C440.24567961 320.35514188 440.26189174 322.26338183 440.27879983 324.17154527 C440.23077605 330.52843554 440.12319521 334.60042219 435.7578125 339.390625 C431.31118614 343.29826635 427.28911217 343.53709364 421.58063793 343.52484608 C420.47141305 343.52837442 420.47141305 343.52837442 419.33977959 343.53197405 C416.84224308 343.53867293 414.34475849 343.53820556 411.84721375 343.53779602 C410.04636217 343.54109408 408.24551133 343.54481952 406.44466144 343.5489375 C401.4805343 343.55897198 396.51641925 343.56267661 391.55228341 343.56532681 C386.20451792 343.5692255 380.85676205 343.57880404 375.50900269 343.58753967 C362.58760824 343.60731502 349.66621301 343.61737104 336.74480721 343.62626746 C330.66429593 343.63064807 324.58378551 343.63601541 318.50327492 343.64125633 C298.29855753 343.65826866 278.09384069 343.67276421 257.88911724 343.68000507 C252.64425849 343.68191505 247.39939975 343.68383538 242.15454102 343.68579102 C240.19909858 343.68651663 240.19909858 343.68651663 238.20415226 343.6872569 C217.07252759 343.69556236 195.94095943 343.72090798 174.80935945 343.75337169 C153.12881644 343.78640807 131.44830219 343.80445068 109.76773387 343.80764931 C97.58882539 343.80981744 85.40999935 343.81861041 73.23111534 343.84411049 C62.86207689 343.86577067 52.49314091 343.87389098 42.12408241 343.86414371 C36.83121669 343.85958558 31.5385626 343.86157288 26.24572563 343.88090515 C21.40285327 343.89844163 16.5603484 343.89761691 11.71747265 343.88200786 C9.96308859 343.87961727 8.20867971 343.88402991 6.45433374 343.89583651 C4.07327611 343.91087158 1.69353479 343.90134233 -0.68748951 343.88560963 C-1.37196884 343.89583183 -2.05644818 343.90605404 -2.76166931 343.91658601 C-7.67436504 343.84551964 -10.43413213 342.41555652 -14.2421875 339.390625 C-17.71176435 335.44248583 -18.36691705 332.17700777 -18.37640858 327.00944805 C-18.38086642 325.88552172 -18.38532426 324.7615954 -18.38991719 323.60361069 C-18.38973283 322.36355659 -18.38954847 321.12350248 -18.38935852 319.84587097 C-18.39303521 318.53263723 -18.3967119 317.21940349 -18.4005 315.86637479 C-18.4105248 312.21342823 -18.41423755 308.5604981 -18.41688931 304.90753973 C-18.42079086 300.97082849 -18.43036921 297.03413029 -18.43910217 293.09742737 C-18.45886937 283.58726184 -18.46893249 274.07709523 -18.47782996 264.56691429 C-18.48221189 260.09028155 -18.48757889 255.61365 -18.49281883 251.1370182 C-18.50983032 236.25946263 -18.52432553 221.38190779 -18.53156757 206.50434399 C-18.53347751 202.64311408 -18.53539784 198.78188418 -18.53735352 194.9206543 C-18.53783726 193.96094671 -18.538321 193.00123912 -18.5388194 192.01244948 C-18.54712361 176.45819416 -18.57246748 160.90401564 -18.60493419 145.34979387 C-18.63798241 129.3871132 -18.65601425 113.4244716 -18.65921181 97.46175653 C-18.66137884 88.49658814 -18.67015572 79.5315318 -18.69567299 70.56639671 C-18.71734934 62.93303411 -18.72544552 55.29981078 -18.71570621 47.6664209 C-18.71115274 43.77096027 -18.7131081 39.87578718 -18.73246765 35.98036575 C-18.75326709 31.75881682 -18.74314245 27.53790923 -18.72993469 23.31632996 C-18.74090394 22.08296801 -18.75187318 20.84960607 -18.76317483 19.57886952 C-18.71501422 13.22687875 -18.61316199 9.16717902 -14.2421875 4.390625 C-9.64830345 0.44223046 -5.87346222 -0.16506406 0 0 Z " fill="#435D9F" transform="translate(45.2421875,67.609375)"/>
<path d="M0 0 C0.75987719 -0.00694553 1.51975437 -0.01389106 2.30265814 -0.02104706 C4.83298131 -0.03925205 7.36235998 -0.02907139 9.89271545 -0.01878357 C11.71326394 -0.02584536 13.53380655 -0.03459147 15.3543396 -0.04489136 C20.28828565 -0.06736602 25.22191062 -0.06445008 30.15588832 -0.05556989 C34.27866714 -0.05045461 38.40138591 -0.05775696 42.52415854 -0.06504196 C52.25188209 -0.0820349 61.97944875 -0.07848122 71.70716858 -0.06175232 C81.73487766 -0.04483026 91.76215144 -0.06066815 101.78981298 -0.0929752 C110.40745031 -0.11968518 119.02495226 -0.12694332 127.64262682 -0.11846012 C132.78599844 -0.11353519 137.92910816 -0.11572316 143.07244682 -0.13624763 C147.90961608 -0.15462686 152.74616001 -0.14861858 157.58329582 -0.12404823 C159.35536387 -0.11904752 161.12747974 -0.1225109 162.89950943 -0.13519669 C178.96533729 -0.24108497 178.96533729 -0.24108497 184.63843632 3.75950718 C193.91856105 14.5296494 190.15077209 19.87672552 190.15077209 36.5146637 C120.85077209 36.5146637 51.55077209 36.5146637 -19.84922791 36.5146637 C-19.84922791 12.5146637 -19.84922791 12.5146637 -14.84922791 4.5146637 C-9.98236681 0.89910668 -5.93826526 -0.07012179 0 0 Z " fill="#283C7A" transform="translate(170.84922790527344,460.48533630371094)"/>
<path d="M0 0 C16.83 0 33.66 0 51 0 C49.02 2.97 47.04 5.94 45 9 C34.79743523 24.64256409 30.69821455 40.96235527 30.6640625 59.5390625 C30.6574057 60.81872894 30.6507489 62.09839539 30.64389038 63.4168396 C30.63199211 66.11467868 30.62820155 68.81239049 30.62939453 71.51025391 C30.62955666 74.24294625 30.61572574 76.97496524 30.58837891 79.70751953 C30.26667449 105.93947956 30.26667449 105.93947956 38.8125 130.4375 C39.32635254 131.4260498 39.32635254 131.4260498 39.85058594 132.43457031 C43.17661863 138.66053565 47.09259785 144.21631709 52.203125 149.109375 C54 151 54 151 54 153 C52.3125 154.2265625 52.3125 154.2265625 50 155.625 C29.86469099 168.77587369 21.32632042 192.62945422 16 215 C10.72 215 5.44 215 0 215 C0 144.05 0 73.1 0 0 Z " fill="#EB514D" transform="translate(87,25)"/>
<path d="M0 0 C16.5 0 33 0 50 0 C50 70.95 50 141.9 50 215 C44.72 215 39.44 215 34 215 C33.56300781 213.18628906 33.56300781 213.18628906 33.1171875 211.3359375 C27.26090864 187.67055201 17.34955856 167.52852644 -3 153 C-1.584802 149.76934599 0.13781038 147.7272805 2.625 145.25 C8.26807629 139.05186703 11.66723335 131.62018284 15 124 C15.27247559 123.38785645 15.54495117 122.77571289 15.82568359 122.14501953 C19.86258362 112.35484183 20.31980924 101.81350628 20.37109375 91.3515625 C20.38012222 90.17774017 20.3891507 89.00391785 20.39845276 87.79452515 C20.41287149 85.32218946 20.42182095 82.84981634 20.42553711 80.37744141 C20.43736001 76.66890961 20.48657244 72.96208473 20.53710938 69.25390625 C20.70336732 44.98278055 17.4709762 21.58527781 1.25 2.50390625 C0 1 0 1 0 0 Z " fill="#EB514D" transform="translate(257,25)"/>
<path d="M0 0 C1.15129395 0.00757324 2.30258789 0.01514648 3.48876953 0.02294922 C11.76495198 0.18366318 18.5953573 0.96092681 26.1875 4.4375 C27.20457031 4.86160156 28.22164063 5.28570313 29.26953125 5.72265625 C36.76192458 9.10601374 42.4432888 13.60064023 48.1875 19.4375 C48.76242188 20.01371094 49.33734375 20.58992188 49.9296875 21.18359375 C57.57304167 29.44079243 61.42140032 39.70000397 64.1875 50.4375 C64.35608017 51.05783112 64.52466034 51.67816223 64.698349 52.31729126 C66.28629386 58.65436794 66.49393254 64.72246371 66.48828125 71.234375 C66.49256638 72.34500305 66.4968515 73.4556311 66.50126648 74.59991455 C66.50698372 76.93964968 66.50752938 79.27940257 66.50317383 81.61914062 C66.50002172 85.16307563 66.52347988 88.70616837 66.54882812 92.25 C66.61370322 115.21133179 63.12677765 134.70986511 46.25 151.6875 C43.98486102 153.5639465 42.76326237 154.3803996 39.82421875 154.671875 C37.5159732 154.44520604 35.42415159 154.04290945 33.1875 153.4375 C32.43984375 153.251875 31.6921875 153.06625 30.921875 152.875 C30.34953125 152.730625 29.7771875 152.58625 29.1875 152.4375 C28.41758939 148.22437807 28.18595576 144.62486086 29.1875 140.4375 C31.92080271 137.56304081 34.72938033 135.59227913 38.07421875 133.47265625 C48.54995807 126.624651 56.15312431 115.06998141 58.73168945 102.86083984 C59.31435789 98.48474088 59.38868818 94.17996538 59.42578125 89.76953125 C59.43788887 88.39458748 59.43788887 88.39458748 59.45024109 86.99186707 C59.46401734 85.06303771 59.47476811 83.13418464 59.48266602 81.20532227 C59.49425393 79.22966387 59.51481136 77.25403839 59.54418945 75.27856445 C59.586653 72.42117085 59.60299807 69.56470022 59.61328125 66.70703125 C59.63954338 65.38044243 59.63954338 65.38044243 59.66633606 64.02705383 C59.75982672 59.28071329 59.75982672 59.28071329 57.39794922 55.36987305 C53.98070221 53.92846965 50.62708219 54.26024251 47 54.4375 C34.36332321 54.71742638 25.73857856 50.80198021 16.4375 42.125 C13.35779138 38.91726654 11.35992559 35.44051446 9.29296875 31.52734375 C7.8280189 28.75791559 6.51576034 26.5603256 4.1875 24.4375 C0.6875 23.60416667 0.6875 23.60416667 -2.8125 24.4375 C-5.18409026 26.59349114 -6.53265759 28.94460537 -8.10546875 31.71484375 C-14.45083241 42.75543628 -22.2012171 50.2599567 -34.71948242 54.00854492 C-36.91091927 54.45767061 -38.80239566 54.50576712 -41.03515625 54.4296875 C-41.82083984 54.41292969 -42.60652344 54.39617187 -43.41601562 54.37890625 C-45.05947082 54.33452382 -46.70273466 54.28240056 -48.34570312 54.22265625 C-49.13009766 54.20847656 -49.91449219 54.19429687 -50.72265625 54.1796875 C-51.79205444 54.14657471 -51.79205444 54.14657471 -52.88305664 54.11279297 C-55.44332097 54.54366119 -56.19169969 55.43946128 -57.8125 57.4375 C-58.27647782 59.3596868 -58.27647782 59.3596868 -58.23242188 61.48730469 C-58.24833374 62.29955505 -58.26424561 63.11180542 -58.28063965 63.94866943 C-58.28084106 64.82670227 -58.28104248 65.70473511 -58.28125 66.609375 C-58.28886353 67.52398499 -58.29647705 68.43859497 -58.30432129 69.38092041 C-58.31513878 71.32439449 -58.31796872 73.26792679 -58.31347656 75.21142578 C-58.31251707 78.13548286 -58.35384671 81.05679961 -58.3984375 83.98046875 C-58.49578251 99.17228873 -56.53387658 112.15524928 -46.8125 124.4375 C-46.21824219 125.24445313 -45.62398437 126.05140625 -45.01171875 126.8828125 C-42.49375972 129.80775958 -39.79911122 131.90921955 -36.6875 134.1875 C-35.10582031 135.35539062 -35.10582031 135.35539062 -33.4921875 136.546875 C-30.99686539 138.40790715 -30.99686539 138.40790715 -28.8125 139.4375 C-28.8125 143.7275 -28.8125 148.0175 -28.8125 152.4375 C-39.00875409 155.40152735 -39.00875409 155.40152735 -43.58984375 152.953125 C-52.38557391 145.30937799 -58.16864218 135.40430817 -61.8125 124.4375 C-62.0803833 123.63844238 -62.3482666 122.83938477 -62.62426758 122.01611328 C-65.66979728 111.11012451 -65.29963816 99.98441887 -65.25854492 88.74658203 C-65.2500525 85.20936503 -65.27883871 81.67377638 -65.31054688 78.13671875 C-65.37926114 56.24781484 -62.76938116 35.98742886 -47.00170898 19.49853516 C-39.75113541 12.22446492 -32.475548 7.03190766 -22.8125 3.4375 C-22.1114917 3.17638428 -21.4104834 2.91526855 -20.68823242 2.64624023 C-13.76059251 0.29560398 -7.27933107 -0.06688025 0 0 Z " fill="#864432" transform="translate(196.8125,15.5625)"/>
<path d="M0 0 C5.28 0 10.56 0 16 0 C16 4.95 16 9.9 16 15 C17.4025 15.515625 18.805 16.03125 20.25 16.5625 C21.03890625 16.85253906 21.8278125 17.14257812 22.640625 17.44140625 C25.29676495 18.07026058 26.49851107 18.06262436 29 17 C30.88652116 15.23759208 32.52550143 13.34567335 34.21875 11.3984375 C36 10 36 10 37.953125 10.03515625 C40.6115818 11.28828379 42.2268374 12.93817927 44.25 15.0625 C44.95640625 15.79597656 45.6628125 16.52945312 46.390625 17.28515625 C47.18726563 18.13400391 47.18726563 18.13400391 48 19 C46.59155282 22.21524305 44.89655214 24.32183868 42.375 26.75 C41.42753906 27.67039062 41.42753906 27.67039062 40.4609375 28.609375 C39.97882813 29.06828125 39.49671875 29.5271875 39 30 C39.309375 30.86625 39.61875 31.7325 39.9375 32.625 C41 36 41 36 42 42 C46.95 42 51.9 42 57 42 C57 46.95 57 51.9 57 57 C52.05 57 47.1 57 42 57 C41.67 58.98 41.34 60.96 41 63 C40.34 64.98 39.68 66.96 39 69 C41.97 71.97 44.94 74.94 48 78 C46.16614077 81.66771845 44.74937171 83.46834996 41.875 86.25 C41.15054688 86.95640625 40.42609375 87.6628125 39.6796875 88.390625 C39.12539062 88.92171875 38.57109375 89.4528125 38 90 C36.8944811 89.06409496 35.79064547 88.12620142 34.6875 87.1875 C34.07261719 86.66542969 33.45773438 86.14335937 32.82421875 85.60546875 C31 84 31 84 29.421875 82.2890625 C28.95265625 81.86367188 28.4834375 81.43828125 28 81 C25.26763839 81.21018166 23.3211731 81.83941345 20.875 83.0625 C19 84 19 84 16 84 C16 88.95 16 93.9 16 99 C10.72 99 5.44 99 0 99 C0 94.05 0 89.1 0 84 C-1.65 83.67 -3.3 83.34 -5 83 C-6.0209375 82.443125 -6.0209375 82.443125 -7.0625 81.875 C-9.5889068 80.73404209 -10.42255501 81.02817648 -13 82 C-15.20149485 83.8394603 -15.20149485 83.8394603 -17.25 86.0625 C-17.95640625 86.79597656 -18.6628125 87.52945313 -19.390625 88.28515625 C-19.92171875 88.85105469 -20.4528125 89.41695313 -21 90 C-24.80635497 86.79239749 -28.54563567 83.59253891 -32 80 C-29.94544813 75.30981088 -26.6565945 72.52116507 -23 69 C-24.32 65.37 -25.64 61.74 -27 58 C-33.93 57.505 -33.93 57.505 -41 57 C-41 52.05 -41 47.1 -41 42 C-36.38 41.67 -31.76 41.34 -27 41 C-26.29875 39.5975 -25.5975 38.195 -24.875 36.75 C-24.48054688 35.96109375 -24.08609375 35.1721875 -23.6796875 34.359375 C-22.77606449 32.043323 -22.77606449 32.043323 -23.65625 29.9375 C-25.14245004 27.79460691 -26.74686648 26.05857302 -28.625 24.25 C-29.57246094 23.32960938 -29.57246094 23.32960938 -30.5390625 22.390625 C-31.02117187 21.93171875 -31.50328125 21.4728125 -32 21 C-30.6095501 17.89557969 -28.98428402 15.6343557 -26.625 13.1875 C-26.03976563 12.56230469 -25.45453125 11.93710937 -24.8515625 11.29296875 C-23 10 -23 10 -20.98828125 10.07421875 C-18.55157784 11.20879382 -17.31300206 12.59554958 -15.5625 14.625 C-13.05314728 17.46254031 -13.05314728 17.46254031 -9.5 18.0625 C-8.2625 17.5365625 -8.2625 17.5365625 -7 17 C-4.69 16.34 -2.38 15.68 0 15 C0 10.05 0 5.1 0 0 Z " fill="#040404" transform="translate(121,267)"/>
<path d="M0 0 C0.639375 0.66 1.27875 1.32 1.9375 2 C2.95778686 3.00055755 3.97869767 4.000479 5 5 C5.87785156 5.90685547 5.87785156 5.90685547 6.7734375 6.83203125 C15.2608797 15.07558144 27.32083426 21.66931011 39.1875 22.5625 C40.27417969 22.64628906 41.36085938 22.73007813 42.48046875 22.81640625 C43.31191406 22.87699219 44.14335937 22.93757813 45 23 C45.05863894 27.14577275 45.09380984 31.29143705 45.125 35.4375 C45.14175781 36.60216797 45.15851563 37.76683594 45.17578125 38.96679688 C45.25129505 52.37049655 42.8676034 62.61672348 33.6015625 72.62890625 C28.25993531 77.49732622 22.18416194 81.29514564 16 85 C15.17113281 85.50144531 14.34226563 86.00289063 13.48828125 86.51953125 C7.2935487 89.76002905 0.83657023 90.12656801 -6 89 C-19.47051002 84.191237 -33.32292466 74.84973623 -40.25 62.125 C-44.10093638 53.57286459 -44.26404432 45.20533862 -44.125 35.9375 C-44.11597656 34.78572266 -44.10695312 33.63394531 -44.09765625 32.44726562 C-44.07428714 29.63128807 -44.04152565 26.81575842 -44 24 C-43.12859375 23.84144531 -42.2571875 23.68289062 -41.359375 23.51953125 C-24.42417872 20.20213891 -10.78910204 13.84540057 0 0 Z " fill="#FDD1BB" transform="translate(197,62)"/>
<path d="M0 0 C3.10650119 0.5012649 5.39323446 1.67978427 8.046875 3.328125 C8.81 3.79863281 9.573125 4.26914063 10.359375 4.75390625 C11.14828125 5.24761719 11.9371875 5.74132812 12.75 6.25 C13.91015625 6.96736328 13.91015625 6.96736328 15.09375 7.69921875 C15.86203125 8.17488281 16.6303125 8.65054688 17.421875 9.140625 C18.18693359 9.61306641 18.95199219 10.08550781 19.74023438 10.57226562 C21.22799999 11.51224545 22.69902398 12.47934887 24.15039062 13.47460938 C27.13238099 15.48624702 29.45373403 16.88019232 32.9921875 17.65625 C37.46075325 16.6812902 40.51624603 14.22497749 44.125 11.5 C45.51718834 10.46032908 46.91543214 9.42870546 48.3203125 8.40625 C48.93148926 7.94541016 49.54266602 7.48457031 50.17236328 7.00976562 C52 6 52 6 56 6 C57.82763672 7.00976562 57.82763672 7.00976562 59.6796875 8.40625 C60.36160156 8.90253906 61.04351562 9.39882812 61.74609375 9.91015625 C63.16035412 10.96631032 64.57184236 12.02618709 65.98046875 13.08984375 C68.98647265 15.2693381 71.30640848 16.84423969 74.95703125 17.6640625 C79.49985407 16.6726891 82.94054768 14.38413497 86.8125 11.875 C87.61059082 11.37452148 88.40868164 10.87404297 89.23095703 10.35839844 C94.02199655 7.3379392 98.73845481 4.2246964 103.2734375 0.828125 C105 0 105 0 106.9609375 0.12890625 C118.24766704 4.9506317 124.57025542 20.11337646 128.9375 30.8125 C131.02878493 36.1789498 131.31941603 39.87474425 132 46 C80.52 46 29.04 46 -24 46 C-21.88971185 27.00740666 -13.20061658 13.20061658 0 0 Z " fill="#283C7B" transform="translate(143,194)"/>
<path d="M0 0 C80.19 0 160.38 0 243 0 C243 5.28 243 10.56 243 16 C162.81 16 82.62 16 0 16 C0 10.72 0 5.44 0 0 Z " fill="#0B0B0C" transform="translate(197,296)"/>
<path d="M0 0 C79.86 0 159.72 0 242 0 C242 4.95 242 9.9 242 15 C162.14 15 82.28 15 0 15 C0 10.05 0 5.1 0 0 Z " fill="#020202" transform="translate(198,347)"/>
<path d="M0 0 C79.86 0 159.72 0 242 0 C242 4.95 242 9.9 242 15 C162.14 15 82.28 15 0 15 C0 10.05 0 5.1 0 0 Z " fill="#000000" transform="translate(198,322)"/>
<path d="M0 0 C5.28 0 10.56 0 16 0 C16 2.64 16 5.28 16 8 C39.76 8 63.52 8 88 8 C88 13.28 88 18.56 88 24 C64.24 24 40.48 24 16 24 C16 26.64 16 29.28 16 32 C10.72 32 5.44 32 0 32 C0 29.03 0 26.06 0 23 C-4.62 23 -9.24 23 -14 23 C-14 18.05 -14 13.1 -14 8 C-9.38 8 -4.76 8 0 8 C0 5.36 0 2.72 0 0 Z " fill="#080809" transform="translate(352,183)"/>
<path d="M0 0 C40.92 0 81.84 0 124 0 C124 4.95 124 9.9 124 15 C83.08 15 42.16 15 0 15 C0 10.05 0 5.1 0 0 Z " fill="#000000" transform="translate(198,271)"/>
<path d="M0 0 C4.95 0 9.9 0 15 0 C15 2.64 15 5.28 15 8 C19.95 8 24.9 8 30 8 C30 12.95 30 17.9 30 23 C25.05 23 20.1 23 15 23 C15 25.64 15 28.28 15 31 C10.05 31 5.1 31 0 31 C0 28.36 0 25.72 0 23 C-23.76 23 -47.52 23 -72 23 C-72 18.05 -72 13.1 -72 8 C-48.24 8 -24.48 8 0 8 C0 5.36 0 2.72 0 0 Z " fill="#000000" transform="translate(410,219)"/>
<path d="M0 0 C4.62 0 9.24 0 14 0 C14 2.64 14 5.28 14 8 C18.95 8 23.9 8 29 8 C29 12.95 29 17.9 29 23 C24.38 23 19.76 23 15 23 C15 25.64 15 28.28 15 31 C9.72 31 4.44 31 -1 31 C-1 28.36 -1 25.72 -1 23 C-24.76 23 -48.52 23 -73 23 C-73 18.05 -73 13.1 -73 8 C-48.91 8 -24.82 8 0 8 C0 5.36 0 2.72 0 0 Z " fill="#010101" transform="translate(411,148)"/>
<path d="M0 0 C4.95 0 9.9 0 15 0 C15 2.64 15 5.28 15 8 C39.09 8 63.18 8 88 8 C88 12.95 88 17.9 88 23 C63.91 23 39.82 23 15 23 C15 25.64 15 28.28 15 31 C10.05 31 5.1 31 0 31 C0 28.36 0 25.72 0 23 C-4.62 23 -9.24 23 -14 23 C-14 18.05 -14 13.1 -14 8 C-9.38 8 -4.76 8 0 8 C0 5.36 0 2.72 0 0 Z " fill="#000000" transform="translate(352,112)"/>
<path d="M0 0 C23.76 0 47.52 0 72 0 C72 6.27 72 12.54 72 19 C48.24 19 24.48 19 0 19 C0 12.73 0 6.46 0 0 Z " fill="#425B9B" transform="translate(220,426)"/>
<path d="M0 0 C5.96395129 2.24931496 9.90481634 6.39415856 13.078125 11.85546875 C15.02013721 16.3731158 14.71927299 21.55361044 13.34765625 26.21875 C10.58098291 32.39329994 6.15323045 36.52401979 0.0625 39.375 C-7.8733372 40.99455861 -12.02215514 40.12861939 -18.79296875 35.71875 C-22.88123159 32.53497009 -24.96671199 29.10068537 -26 24 C-26.58164166 18.30753982 -26.56802135 13.47250899 -23.34765625 8.6015625 C-16.52091919 0.4886286 -10.50002139 -1.09298468 0 0 Z " fill="#E6E6FB" transform="translate(135,297)"/>
<path d="M0 0 C0.98742187 0.16242188 1.97484375 0.32484375 2.9921875 0.4921875 C7.0498277 1.07010002 11.03212085 1.14821103 15.125 1.125 C15.81464844 1.12886719 16.50429687 1.13273438 17.21484375 1.13671875 C20.93589698 1.12960393 24.38273222 0.88672323 28 0 C28.96131805 4.19484241 28.96131805 4.19484241 28 7 C24.20231025 10.63704297 18.52459651 15.93722049 13 16 C10.54415004 14.76614301 8.48730057 13.54890039 6.25 12 C5.64800781 11.62488281 5.04601562 11.24976563 4.42578125 10.86328125 C2.703125 9.6875 2.703125 9.6875 0 7 C-0.390625 3.1875 -0.390625 3.1875 0 0 Z " fill="#F0C7B1" transform="translate(183,164)"/>
<path d="M0 0 C3.05966175 1.59613173 5.64948344 3.46564416 8 6 C8 6.66 8 7.32 8 8 C2.88817599 12.06622365 2.88817599 12.06622365 0.21875 11.8671875 C-3.00367665 10.60771793 -5.84292884 8.78716396 -8.75 6.9375 C-9.35199219 6.56044922 -9.95398438 6.18339844 -10.57421875 5.79492188 C-12.05249143 4.86806837 -13.52666089 3.93467611 -15 3 C-11.00236085 -0.99763915 -5.32473037 -0.85477999 0 0 Z " fill="#405997" transform="translate(175,183)"/>
<path d="M0 0 C0.99 0.33 1.98 0.66 3 1 C-0.08186773 3.58479229 -3.28074966 5.9892807 -6.5625 8.3125 C-7.30628906 8.84488281 -8.05007812 9.37726563 -8.81640625 9.92578125 C-11 11 -11 11 -13.10546875 10.765625 C-15.57875372 9.7661119 -17.75566751 8.43387909 -20 7 C-16.97855362 -2.06433914 -7.8660401 -2.1726764 0 0 Z " fill="#415A99" transform="translate(231,184)"/>
</svg>
