<?xml version="1.0" encoding="UTF-8"?>
<svg version="1.1" xmlns="http://www.w3.org/2000/svg" width="512" height="512">
<path d="M0 0 C2.48572091 -0.0043797 4.96966755 -0.04089617 7.45507812 -0.07861328 C24.75715873 -0.19917263 42.30659099 2.64882087 56.86914062 12.55810547 C61.74898077 15.64919392 66.47152718 16.11346779 72.0793457 16.62231445 C86.59801941 18.06440783 98.79341359 26.49645583 108.11914062 37.37060547 C115.83891853 47.97243379 119.28799641 59.42088789 119.23266602 72.38354492 C119.23281204 73.28160355 119.23295807 74.17966217 119.23310852 75.10493469 C119.23241349 78.06461019 119.22464028 81.02422226 119.21679688 83.98388672 C119.21493124 86.03940293 119.21350802 88.09491959 119.21250916 90.1504364 C119.20869544 95.55418124 119.19887493 100.9578991 119.18780518 106.3616333 C119.17756643 111.87829219 119.17300625 117.39495544 119.16796875 122.91162109 C119.15725164 133.73129439 119.14018896 144.55094768 119.11914062 155.37060547 C119.89257812 155.66837891 120.66601562 155.96615234 121.46289062 156.27294922 C128.20292054 159.05816746 131.18648276 163.96387599 134.11914062 170.37060547 C136.24450935 176.96058522 136.13930819 184.79519044 133.49414062 191.18310547 C129.150215 199.52404599 123.86043694 203.87985678 115.11914062 207.37060547 C112.13334123 208.30584614 109.49223812 208.47903337 106.36914062 208.43310547 C105.56992187 208.42408203 104.77070313 208.41505859 103.94726562 208.40576172 C103.04234375 208.38835937 103.04234375 208.38835937 102.11914062 208.37060547 C102.02439453 209.44761719 102.02439453 209.44761719 101.92773438 210.54638672 C99.62881301 229.97832205 90.8139352 248.57348822 78.11914062 263.37060547 C77.41917969 264.19173828 76.71921875 265.01287109 75.99804688 265.85888672 C70.6822246 271.93016381 64.98042467 278.42844238 58.01586914 282.64355469 C55.88970043 284.23002688 55.88970043 284.23002688 55.66503906 286.82250977 C55.68598633 287.77037354 55.70693359 288.7182373 55.72851562 289.69482422 C55.74140625 290.72285156 55.75429688 291.75087891 55.76757812 292.81005859 C55.81785156 294.4178418 55.81785156 294.4178418 55.86914062 296.05810547 C55.8871875 297.1415625 55.90523438 298.22501953 55.92382812 299.34130859 C55.97100554 302.01862693 56.03681813 304.69417456 56.11914062 307.37060547 C57.11244385 307.84369141 58.10574707 308.31677734 59.12915039 308.80419922 C62.84904203 310.58204654 66.55654297 312.38454882 70.26098633 314.19433594 C71.85900075 314.97085974 73.46020226 315.74086293 75.06469727 316.50390625 C93.57312224 325.31744195 93.57312224 325.31744195 97.11914062 332.37060547 C97.21006485 333.29987099 97.21006485 333.29987099 97.30282593 334.24790955 C97.57810415 336.64631757 97.9274647 338.25846134 99.11914062 340.37060547 C102.78814617 342.55024637 106.75268991 343.52291405 110.85351562 344.62451172 C112.03826477 344.97392319 113.22301392 345.32333466 114.44366455 345.68333435 C117.60167512 346.61038408 120.76589538 347.50905158 123.93634033 348.39245605 C129.56714484 349.96752368 135.18007281 351.60534965 140.79101562 353.24951172 C141.98021103 353.59775497 143.16940643 353.94599823 144.39463806 354.30479431 C161.52457935 359.44497561 176.0985162 367.16561605 185.11914062 383.37060547 C188.20448158 390.31061914 191.22467127 397.25102787 191.26631165 404.92480469 C191.2770446 406.28747467 191.2770446 406.28747467 191.28799438 407.67767334 C191.29068329 408.66688782 191.29337219 409.65610229 191.29614258 410.67529297 C191.30271378 411.72283752 191.30928497 412.77038208 191.3160553 413.84967041 C191.33576221 417.31498282 191.34744225 420.78025204 191.35742188 424.24560547 C191.3614974 425.4284613 191.36557293 426.61131714 191.36977196 427.83001709 C191.39061687 434.08508123 191.4049281 440.3401235 191.41430664 446.59521484 C191.42539599 453.06528891 191.45982973 459.53502141 191.49947834 466.00497437 C191.52557004 470.97372087 191.53399162 475.94238485 191.53758812 480.91119385 C191.54246968 483.2970817 191.55412793 485.68296549 191.57262611 488.06878662 C191.59686904 491.4014435 191.59607999 494.73320067 191.58911133 498.06591797 C191.60832642 499.54973969 191.60832642 499.54973969 191.62792969 501.0635376 C191.57688362 507.74179957 191.57688362 507.74179957 189.21696472 510.98364258 C185.64304995 513.34651331 183.33929213 512.83951119 179.11914062 512.37060547 C177.11914062 511.12060547 177.11914062 511.12060547 176.11914062 509.37060547 C176.11914062 508.05060547 176.11914062 506.73060547 176.11914062 505.37060547 C159.48164772 505.38440269 142.84450788 505.42658681 126.20719433 505.50269604 C118.482417 505.53736984 110.75781856 505.56270466 103.03295898 505.56616211 C96.30103364 505.56919872 89.56942669 505.5896478 82.83762437 505.63113004 C79.27208977 505.65248994 75.70700813 505.66504572 72.14140892 505.65675926 C68.16386631 505.64784135 64.18714078 505.67779362 60.2097168 505.71118164 C59.02360809 505.702556 57.83749939 505.69393036 56.615448 505.68504333 C55.53431229 505.70033081 54.45317657 505.71561829 53.33927917 505.73136902 C51.92755322 505.73551709 51.92755322 505.73551709 50.48730755 505.73974895 C47.8663505 506.16282754 47.8663505 506.16282754 46.41788197 508.84805775 C45.775005 510.09671887 45.775005 510.09671887 45.11914062 511.37060547 C41.91358712 512.97338222 38.58659409 513.00105155 35.11914062 512.37060547 C32.61914062 509.99560547 32.61914062 509.99560547 31.11914062 507.37060547 C31.11914062 506.71060547 31.11914062 506.05060547 31.11914062 505.37060547 C20.55914062 505.37060547 9.99914062 505.37060547 -0.88085938 505.37060547 C-1.54085937 507.02060547 -2.20085937 508.67060547 -2.88085938 510.37060547 C-4.88085938 512.37060547 -4.88085938 512.37060547 -8.75585938 512.80810547 C-12.25138286 512.738195 -12.68791443 512.55390317 -15.38085938 509.99560547 C-16.88085938 507.37060547 -16.88085938 507.37060547 -16.88085938 505.37060547 C-27.44085938 505.37060547 -38.00085938 505.37060547 -48.88085938 505.37060547 C-49.54085937 507.02060547 -50.20085937 508.67060547 -50.88085938 510.37060547 C-52.88085938 512.37060547 -52.88085938 512.37060547 -56.75585938 512.74560547 C-59.93842726 512.67629365 -60.69010093 512.51734273 -63.31835938 510.49560547 C-64.88085937 508.37060547 -64.88085937 508.37060547 -65.88085938 506.37060547 C-68.20242535 505.96331319 -70.53773807 505.6262187 -72.88085938 505.37060547 C-73.16960937 506.15435547 -73.45835937 506.93810547 -73.75585938 507.74560547 C-74.88085938 510.37060547 -74.88085938 510.37060547 -76.88085938 512.37060547 C-79.66038201 512.57973012 -82.34108045 512.66424757 -85.12255859 512.66113281 C-86.40083023 512.67120865 -86.40083023 512.67120865 -87.70492554 512.68148804 C-90.53185807 512.70054002 -93.35855408 512.70439594 -96.18554688 512.70654297 C-98.14608865 512.71296624 -100.10662946 512.71969424 -102.06716919 512.72671509 C-106.18135806 512.73870612 -110.29546285 512.74239407 -114.40966797 512.74121094 C-119.68487823 512.74100772 -124.9595499 512.76830422 -130.23463249 512.80275536 C-134.28551719 512.8249805 -138.33627141 512.82904982 -142.38721085 512.82799149 C-144.33210226 512.83035428 -146.2769969 512.83921581 -148.22182846 512.85465622 C-150.9417273 512.87422631 -153.66045386 512.86851363 -156.38037109 512.85644531 C-157.18571289 512.86768433 -157.99105469 512.87892334 -158.82080078 512.89050293 C-162.39731625 512.85012456 -164.48213987 512.66088788 -167.41213989 510.52774048 C-168.88085938 508.37060547 -168.88085938 508.37060547 -168.88085938 505.37060547 C-177.13085938 505.37060547 -185.38085938 505.37060547 -193.88085938 505.37060547 C-194.21085937 507.02060547 -194.54085937 508.67060547 -194.88085938 510.37060547 C-197.44163702 512.93138311 -199.3096854 512.6851191 -202.81054688 512.83154297 C-206.00464551 512.12040403 -206.93966721 511.02928475 -208.88085938 508.37060547 C-209.49320929 504.9898468 -209.42690169 501.63655118 -209.3984375 498.20874023 C-209.40544678 497.17565231 -209.41245605 496.14256439 -209.41967773 495.07817078 C-209.43730861 491.65584566 -209.42560862 488.2343456 -209.41210938 484.81201172 C-209.41480466 482.42748354 -209.41868738 480.04295643 -209.42370605 477.65843201 C-209.42960956 472.65230887 -209.42101723 467.64647087 -209.40234375 462.64038086 C-209.37966525 456.25182636 -209.39260172 449.86394817 -209.41663361 443.47541904 C-209.43116348 438.54486604 -209.4264508 433.61447031 -209.41612244 428.68391228 C-209.41346919 426.33060563 -209.41667508 423.97728433 -209.42604065 421.62399483 C-209.48868334 401.44087046 -207.40068436 385.80789001 -193.05664062 370.46435547 C-182.12394198 359.94384115 -168.06631294 355.87011139 -153.80273438 351.85498047 C-152.73539566 351.55069626 -151.66805695 351.24641205 -150.56837463 350.9329071 C-146.12415027 349.66718721 -141.68114669 348.40267576 -137.21826172 347.20410156 C-133.92180475 346.31335984 -130.64412705 345.37055973 -127.36523438 344.41748047 C-126.35595886 344.15980896 -125.34668335 343.90213745 -124.30682373 343.63665771 C-121.50006621 342.79319346 -119.29354617 342.03885857 -116.88085938 340.37060547 C-115.57876543 337.8189571 -114.9647691 335.58451865 -114.47674561 332.76716614 C-113.31767864 328.10558117 -109.7671712 325.86184895 -105.88085938 323.37060547 C-100.51341111 320.29666905 -94.94865585 317.61984834 -89.38085938 314.93310547 C-87.87509758 314.19530164 -86.369884 313.4563779 -84.86523438 312.71630859 C-81.20996776 310.92143456 -77.54761879 309.1418745 -73.88085938 307.37060547 C-72.1494782 293.71353638 -72.1494782 293.71353638 -76.01367188 281.15576172 C-78.8615256 278.96235906 -81.77332046 277.17225254 -84.88085938 275.37060547 C-103.9054778 258.92768001 -117.66681856 233.53837559 -119.88085938 208.37060547 C-121.15960938 208.43248047 -122.43835938 208.49435547 -123.75585938 208.55810547 C-133.34618273 208.46805548 -139.85155792 205.60853189 -146.74023438 198.88232422 C-152.3996667 192.24178593 -153.63550978 185.13924572 -153.32226562 176.55029297 C-152.16837415 168.23818978 -148.03653332 162.83745332 -141.65039062 157.64794922 C-139.88085938 156.37060547 -139.88085938 156.37060547 -137.88085938 155.37060547 C-137.87721375 154.64192261 -137.87356812 153.91323975 -137.86981201 153.16247559 C-137.83159895 146.22120171 -137.77437834 139.28030264 -137.69695663 132.3393631 C-137.65781318 128.7727756 -137.62546579 125.20642276 -137.60986328 121.63964844 C-137.43663505 84.764616 -137.43663505 84.764616 -128.63867188 70.38623047 C-127.66015714 68.41213422 -127.66015714 68.41213422 -128.45898438 66.53076172 C-130.84457618 62.90649724 -133.2649012 59.30344081 -135.77929688 55.76708984 C-138.59770581 51.57150382 -139.78519476 48.5614906 -138.88085938 43.37060547 C-135.12854516 37.92118649 -130.04776283 36.85914285 -124.00585938 35.12060547 C-110.55094447 30.96799878 -97.85333813 25.30244046 -85.02783203 19.53759766 C-71.48352696 13.47243867 -57.83294588 7.92531886 -43.31835938 4.62060547 C-42.52751953 4.42595703 -41.73667969 4.23130859 -40.921875 4.03076172 C-27.39292315 0.8587494 -13.84262677 -0.00271424 0 0 Z " fill="#020101" transform="translate(264.880859375,-0.37060546875)"/>
<path d="M0 0 C0.6084375 0.4125 1.216875 0.825 1.84375 1.25 C39.6395076 26.15073442 85.28451715 28.93874308 128.90698242 20.32397461 C140.04335608 18.03235521 151.08700014 15.34956571 162.09082031 12.49316406 C164.05802261 11.98501206 166.02831778 11.49045184 168 11 C180.31590605 27.79772984 187.16303015 43.43441974 187.47851562 64.27148438 C187.68074662 71.01416171 188.39062356 76.8665647 192.8671875 82.2421875 C193.52976562 82.78101563 194.19234375 83.31984375 194.875 83.875 C195.53242188 84.42929688 196.18984375 84.98359375 196.8671875 85.5546875 C203.23287932 89.8684347 209.72564103 89.34895317 217.1640625 89.390625 C223.29885438 89.54837679 226.96427719 90.43247606 232 94 C234.18573014 96.39064234 234.95414968 97.90557279 235.08984375 101.14453125 C234.76242868 106.20687195 233.80305736 109.41426021 230 113 C226.93730762 115.29701928 223.61921638 115.52385586 219.87890625 115.46875 C216.69208807 114.67370181 215.7080399 111.64470694 214 109 C210.45728358 108.24988633 210.45728358 108.24988633 207 109 C204.89641619 110.54262813 204.15945841 111.68108317 203 114 C202.81504741 115.54766592 202.67938895 117.10139322 202.5703125 118.65625 C202.49683594 119.59726563 202.42335938 120.53828125 202.34765625 121.5078125 C202.20157379 123.47095569 202.06076885 125.43450023 201.92578125 127.3984375 C200.00939612 151.36949217 186.61994108 172.47026223 169.3125 188.5625 C151.10725544 203.81748753 129.68362897 211.21308376 106.0625 211.125 C105.02931641 211.12886719 103.99613281 211.13273438 102.93164062 211.13671875 C78.87548833 211.10624864 57.79902728 202.19419695 40 186 C39.29617187 185.37738281 38.59234375 184.75476563 37.8671875 184.11328125 C20.64073481 168.00148138 10.97541609 144.71801401 9.71948242 121.5 C9.3934208 114.72621749 9.3934208 114.72621749 6 109 C1.89078285 108.25004047 1.89078285 108.25004047 -2 109 C-2.639375 109.99 -3.27875 110.98 -3.9375 112 C-6 115 -6 115 -8.02734375 115.57421875 C-12.14662772 115.7729862 -15.12830248 115.36554182 -18.4375 112.8125 C-22.18422484 108.70024103 -22.97407643 106.6331852 -23.0625 101.0625 C-22.39231055 96.69385763 -20.17375512 94.77184709 -16.7890625 92.12890625 C-13.8274485 90.26011489 -11.24679563 89.87129144 -7.83203125 89.7890625 C-6.61483398 89.74652344 -6.61483398 89.74652344 -5.37304688 89.703125 C-3.68575145 89.65164383 -1.99822438 89.60720163 -0.31054688 89.5703125 C6.24573501 89.32232075 12.04646886 88.41325105 17.2421875 84.16796875 C17.78101563 83.51441406 18.31984375 82.86085938 18.875 82.1875 C19.42929688 81.54167969 19.98359375 80.89585937 20.5546875 80.23046875 C24.0265993 74.87246433 24.30809946 69.60012297 24.30078125 63.42578125 C24.30720894 62.21730782 24.30720894 62.21730782 24.31376648 60.98442078 C24.31948332 59.29097429 24.32002966 57.59750327 24.31567383 55.90405273 C24.31249689 53.30996329 24.33606317 50.71699698 24.36132812 48.12304688 C24.36359966 46.47395977 24.36430529 44.8248696 24.36328125 43.17578125 C24.372491 42.4007576 24.38170074 41.62573395 24.39118958 40.82722473 C24.37497082 36.6825189 24.37497082 36.6825189 22.66479492 33.00463867 C20.09600595 31.45447492 17.93153382 31.75570551 15 32 C14.01 32.33 13.02 32.66 12 33 C10.8081028 36.5756916 10.86473862 39.83417607 10.859375 43.5546875 C10.8410485 45.07162962 10.82147833 46.58855713 10.80078125 48.10546875 C10.77181545 50.49097408 10.74999989 52.87553782 10.74951172 55.26123047 C10.74617032 57.56822737 10.71159078 59.87306648 10.671875 62.1796875 C10.6789447 62.88817841 10.6860144 63.59666931 10.69329834 64.32662964 C10.60753508 67.83045323 10.01471535 69.97545704 8.20800781 72.98876953 C3.33442516 76.04421655 -1.39632237 75.40217782 -7 75 C-7.10250837 67.6026613 -7.17192421 60.2055097 -7.21972656 52.80761719 C-7.23968165 50.29778194 -7.26685553 47.7879922 -7.30175781 45.27832031 C-7.75418858 11.87828458 -7.75418858 11.87828458 0 0 Z " fill="#FDDF9F" transform="translate(150,77)"/>
<path d="M0 0 C7.07344766 0.60057574 13.48447518 2.48480085 20.2421875 4.60546875 C21.98751266 5.14800041 21.98751266 5.14800041 23.76809692 5.70149231 C26.2216895 6.46706426 28.67413516 7.23632056 31.12548828 8.0090332 C34.85143079 9.18009223 38.58352293 10.32980361 42.31640625 11.47851562 C44.70874083 12.22786696 47.10068147 12.97847735 49.4921875 13.73046875 C50.59666229 14.06821823 51.70113708 14.40596771 52.83908081 14.75395203 C65.81437182 18.89642207 75.45298211 24.81267757 81.8125 37.125 C85.25267419 44.28713739 86.28769024 50.17414449 86.22705078 58.04443359 C86.22729185 59.05619974 86.22753292 60.06796589 86.2277813 61.11039162 C86.22629303 64.37316421 86.21108241 67.63570598 86.1953125 70.8984375 C86.19237056 72.91772349 86.19033105 74.93701101 86.18920898 76.95629883 C86.17873914 84.42922253 86.15081663 91.90211355 86.125 99.375 C86.08375 116.08125 86.0425 132.7875 86 150 C43.76 150 1.52 150 -42 150 C-41.23456513 146.17282567 -40.71042777 144.05538275 -39.01951599 140.76574707 C-38.60584778 139.95307373 -38.19217957 139.14040039 -37.76597595 138.30310059 C-37.31138504 137.42512817 -36.85679413 136.54715576 -36.38842773 135.64257812 C-35.67132126 134.23903076 -35.67132126 134.23903076 -34.93972778 132.80712891 C-33.90208248 130.77670349 -32.86196432 128.74754036 -31.81966972 126.71949768 C-30.16864166 123.50211263 -28.52860733 120.27936102 -26.8921051 117.05456543 C-22.23918852 107.88597088 -17.58186872 98.71984782 -12.88012695 89.57617188 C-10.00336402 83.97964588 -7.1525402 78.37055872 -4.31797981 72.75254822 C-3.23621802 70.62044649 -2.14501971 68.493104 -1.04403496 66.37086487 C7.47359336 51.03817162 7.47359336 51.03817162 8 34 C5.97721504 27.65927371 2.02179904 23.49912481 -2.75 19 C-3.35199219 18.41605469 -3.95398438 17.83210938 -4.57421875 17.23046875 C-6.04037899 15.81085328 -7.51891344 14.40403581 -9 13 C-8.06398754 11.58235006 -7.1261208 10.16592432 -6.1875 8.75 C-5.66542969 7.96109375 -5.14335937 7.1721875 -4.60546875 6.359375 C-3.12865878 4.18907519 -1.59310127 2.08586232 0 0 Z " fill="#EBE9EB" transform="translate(355,355)"/>
<path d="M0 0 C1.92102539 -0.01836914 1.92102539 -0.01836914 3.88085938 -0.03710938 C14.76355002 -0.0537411 25.01374883 0.91534989 35.1875 4.9375 C35.86417725 5.20062988 36.54085449 5.46375977 37.23803711 5.73486328 C49.560511 10.66973118 57.35576524 17.18040906 64.1171875 28.62109375 C64.96867121 30.17368728 64.96867121 30.17368728 66.0625 31.1875 C70.15514519 31.62647063 70.15514519 31.62647063 73.74609375 29.96484375 C75.44872788 27.66603506 75.37294229 26.32767258 75.25 23.5 C75.22292969 22.69175781 75.19585937 21.88351563 75.16796875 21.05078125 C75.13316406 20.43589844 75.09835937 19.82101563 75.0625 19.1875 C84.60582351 21.57333088 92.25999144 28.99213558 97.31640625 37.23046875 C101.0770573 44.40484733 102.36266453 50.95256633 102.28955078 58.96850586 C102.28984283 59.81808868 102.29013489 60.66767151 102.29043579 61.54299927 C102.28905105 64.32955413 102.2735304 67.11583604 102.2578125 69.90234375 C102.25407932 71.84289911 102.25123379 73.78345636 102.24923706 75.72401428 C102.24162459 80.81541202 102.22199667 85.90669448 102.1998291 90.99804688 C102.17931917 96.19985393 102.17022435 101.40167973 102.16015625 106.60351562 C102.13874847 116.79822755 102.10464144 126.99285416 102.0625 137.1875 C100.12984403 137.23969777 98.19678355 137.27707388 96.26367188 137.30810547 C94.64906067 137.34168655 94.64906067 137.34168655 93.00183105 137.37594604 C90.0625 137.1875 90.0625 137.1875 86.84375 135.2578125 C84.41480911 131.07108544 84.48894599 127.8156421 84.5625 123.0625 C84.14843762 102.03968631 76.15428698 78.09618507 60.828125 62.984375 C59.0625 61.1875 59.0625 61.1875 59.0625 59.1875 C52.11160138 57.77375791 47.56983659 58.69297518 40.90234375 60.94140625 C27.68330604 65.35946804 13.8272316 68.12800417 0.0625 70.1875 C-0.91976562 70.34412109 -0.91976562 70.34412109 -1.921875 70.50390625 C-35.80365864 75.77292378 -74.66427862 74.14195394 -103.62158203 54.01708984 C-106.90013541 51.59106232 -109.9440442 48.95341271 -112.9375 46.1875 C-113.659375 45.53394531 -114.38125 44.88039062 -115.125 44.20703125 C-118.29156538 41.21283939 -119.98273915 39.48171629 -120.9375 35.1875 C-119.88393311 34.78805176 -118.83036621 34.38860352 -117.74487305 33.97705078 C-109.26101422 30.73365694 -100.85428428 27.35256933 -92.51953125 23.7421875 C-91.63844696 23.36064514 -90.75736267 22.97910278 -89.84957886 22.58599854 C-86.23912455 21.01909797 -82.63068965 19.44765873 -79.0246582 17.87060547 C-64.89436521 11.69962869 -50.92982885 5.76389211 -35.6875 2.9375 C-34.8934375 2.77765625 -34.099375 2.6178125 -33.28125 2.453125 C-22.22379153 0.31297175 -11.24009104 0.00563978 0 0 Z " fill="#B47E5E" transform="translate(266.9375,14.8125)"/>
<path d="M0 0 C0.20753906 0.7321875 0.41507813 1.464375 0.62890625 2.21875 C3.41929699 12.02598104 6.27161587 21.81477934 9.1328125 31.6015625 C10.38488687 35.8859429 11.62911148 40.17249162 12.8671875 44.4609375 C16.08963429 60.72872043 16.08963429 60.72872043 23 75 C28.38760867 75.61214444 28.38760867 75.61214444 33.0625 73.5 C35.17504423 67.86654873 32.72563593 61.52203498 31 56 C32.47943027 56.29032661 33.95852623 56.58235679 35.4375 56.875 C36.36433594 57.05546875 37.29117188 57.2359375 38.24609375 57.421875 C39.85328284 57.75927072 41.45543592 58.12937527 43.03515625 58.578125 C56.16319642 62.23205268 70.01198359 60.02739996 83 57 C84.99735151 56.65114751 86.9966613 56.31264225 89 56 C86.94403691 63.73911308 84.71501775 71.42318032 82.4453125 79.1015625 C80.52246969 85.60820585 78.62664169 92.12271986 76.72973633 98.63696289 C75.22826071 103.79233955 73.72295275 108.94650692 72.20703125 114.09765625 C68.31100045 127.35657348 64.58143865 140.65262842 61 154 C60.34 154 59.68 154 59 154 C58.80889648 153.28046143 58.61779297 152.56092285 58.42089844 151.81958008 C53.97510271 134.84187969 53.97510271 134.84187969 48.9609375 118.02734375 C48.20014609 115.63054156 47.48401783 113.23248729 46.7890625 110.81640625 C46.57523926 110.09018066 46.36141602 109.36395508 46.14111328 108.61572266 C45.72603975 107.20548424 45.32014517 105.79249809 44.92529297 104.37646484 C43.70454782 100.29808956 42.46168611 97.56034142 39 95 C35.37350049 94.91083846 35.37350049 94.91083846 32 96 C29.18160757 100.22758864 30.09022191 103.15947673 31 108 C31.75905232 110.96690162 32.7031243 113.8510416 33.6875 116.75 C34.23815853 118.43148106 34.78624849 120.11380502 35.33203125 121.796875 C35.61127441 122.65732422 35.89051758 123.51777344 36.17822266 124.40429688 C37.49951641 128.57779515 38.69011736 132.78609408 39.875 137 C41.57478762 143.04407241 43.31248312 149.07337651 45.12109375 155.0859375 C45.48412598 156.29507813 45.8471582 157.50421875 46.22119141 158.75 C46.93420802 161.11842743 47.65116199 163.48567406 48.37255859 165.8515625 C48.69949707 166.93953125 49.02643555 168.0275 49.36328125 169.1484375 C49.65501221 170.10927246 49.94674316 171.07010742 50.24731445 172.06005859 C51.08176354 175.31936313 51.52419812 178.66938686 52 182 C41.11 182 30.22 182 19 182 C17.68 178.7 16.36 175.4 15 172 C13.45035662 168.76801588 11.87738321 165.56879916 10.24731445 162.37866211 C9.78991882 161.47482285 9.33252319 160.57098358 8.86126709 159.63975525 C7.87701748 157.69543512 6.89102427 155.75199681 5.90343666 153.80937004 C4.33908431 150.72970846 2.78168975 147.64662253 1.22636414 144.56239319 C-3.19295583 135.79974479 -7.61777922 127.03994801 -12.0637207 118.29077148 C-14.7907024 112.92311149 -17.50388256 107.5486687 -20.20832253 102.16961861 C-21.2378016 100.12856577 -22.27241311 98.09009299 -23.31232262 96.05433464 C-24.76641601 93.20657501 -26.20275424 90.35049001 -27.63549805 87.49194336 C-28.0651033 86.66104187 -28.49470856 85.83014038 -28.93733215 84.97406006 C-31.52610385 79.75194934 -33.10661896 74.89148333 -33 69 C-31.98828125 66.79296875 -31.98828125 66.79296875 -30.3125 65.1875 C-29.67828125 64.54296875 -29.0440625 63.8984375 -28.390625 63.234375 C-27.09092778 62.01962531 -25.79050471 60.80564243 -24.48632812 59.59570312 C-23.38943358 58.57254939 -22.29862859 57.54283303 -21.21362305 56.50708008 C-20.13093925 55.4778661 -19.03109001 54.46635056 -17.91333008 53.4753418 C-15.29838304 51.00768056 -14.05900801 49.24914493 -13.2265625 45.734375 C-14.36633302 40.23124055 -17.3772151 36.66837357 -20.8125 32.3125 C-21.45509766 31.47138672 -22.09769531 30.63027344 -22.75976562 29.76367188 C-23.95710291 28.19906844 -25.16118985 26.6395895 -26.37426758 25.0871582 C-26.91075928 24.398396 -27.44725098 23.70963379 -28 23 C-28.58483154 22.35442139 -29.16966309 21.70884277 -29.7722168 21.04370117 C-31 19 -31 19 -31.07202148 16.47192383 C-29.50376419 12.85575323 -27.35614174 12.15121475 -23.84765625 10.44921875 C-23.23232529 10.14554886 -22.61699432 9.84187897 -21.98301697 9.52900696 C-20.01734191 8.5647056 -18.04034216 7.6265484 -16.0625 6.6875 C-14.73425631 6.03737755 -13.40677169 5.38570183 -12.08007812 4.73242188 C-2.37655063 0 -2.37655063 0 0 0 Z " fill="#D9D7DA" transform="translate(196,323)"/>
<path d="M0 0 C0.6084375 0.4125 1.216875 0.825 1.84375 1.25 C39.6395076 26.15073442 85.28451715 28.93874308 128.90698242 20.32397461 C140.04335608 18.03235521 151.08700014 15.34956571 162.09082031 12.49316406 C164.05802261 11.98501206 166.02831778 11.49045184 168 11 C169.13136586 12.55789683 170.25482321 14.12153857 171.375 15.6875 C172.00148438 16.55761719 172.62796875 17.42773438 173.2734375 18.32421875 C174.89415843 20.83596952 175.99858088 23.19299187 177 26 C161.49742109 33.61530192 143.88041457 36.11174444 127 39 C126.03916504 39.16951172 125.07833008 39.33902344 124.08837891 39.51367188 C112.22517385 41.51684751 100.60079888 42.0866335 88.59375 41.96875 C87.48439087 41.95937912 86.37503174 41.95000824 85.23205566 41.94035339 C79.59832129 41.88502695 73.96961508 41.78647091 68.33789062 41.6262207 C66.22527208 41.58997108 64.1126421 41.55438101 62 41.51953125 C61.04041382 41.47900635 60.08082764 41.43848145 59.09216309 41.39672852 C51.80786325 41.31739487 46.67114659 43.39647923 41 48 C36.6209091 53.45321404 34.88443433 58.16346833 34.82299805 65.17358398 C34.81016281 66.45019394 34.79732758 67.72680389 34.78410339 69.042099 C34.77592334 70.44342657 34.76848207 71.84475862 34.76171875 73.24609375 C34.75764322 73.95756121 34.7535677 74.66902866 34.74936867 75.40205574 C34.72848368 79.18575879 34.71420629 82.96942559 34.70483398 86.75317383 C34.69606267 89.84582771 34.67540718 92.9380192 34.64331055 96.03051758 C34.28332737 131.49287746 39.35856759 161.76372513 64.47265625 188.46826172 C73.62889225 197.65084239 84.60527318 204.00666966 96 210 C91.00640979 212.4967951 83.6992006 209.83632766 78.62133789 208.23706055 C63.9969849 203.30123923 51.47627321 196.44152726 40 186 C39.29617187 185.37738281 38.59234375 184.75476563 37.8671875 184.11328125 C20.64073481 168.00148138 10.97541609 144.71801401 9.71948242 121.5 C9.3934208 114.72621749 9.3934208 114.72621749 6 109 C1.89078285 108.25004047 1.89078285 108.25004047 -2 109 C-2.639375 109.99 -3.27875 110.98 -3.9375 112 C-6 115 -6 115 -8.02734375 115.57421875 C-12.14662772 115.7729862 -15.12830248 115.36554182 -18.4375 112.8125 C-22.18422484 108.70024103 -22.97407643 106.6331852 -23.0625 101.0625 C-22.39231055 96.69385763 -20.17375512 94.77184709 -16.7890625 92.12890625 C-13.8274485 90.26011489 -11.24679563 89.87129144 -7.83203125 89.7890625 C-6.61483398 89.74652344 -6.61483398 89.74652344 -5.37304688 89.703125 C-3.68575145 89.65164383 -1.99822438 89.60720163 -0.31054688 89.5703125 C6.24573501 89.32232075 12.04646886 88.41325105 17.2421875 84.16796875 C17.78101563 83.51441406 18.31984375 82.86085938 18.875 82.1875 C19.42929688 81.54167969 19.98359375 80.89585937 20.5546875 80.23046875 C24.0265993 74.87246433 24.30809946 69.60012297 24.30078125 63.42578125 C24.30720894 62.21730782 24.30720894 62.21730782 24.31376648 60.98442078 C24.31948332 59.29097429 24.32002966 57.59750327 24.31567383 55.90405273 C24.31249689 53.30996329 24.33606317 50.71699698 24.36132812 48.12304688 C24.36359966 46.47395977 24.36430529 44.8248696 24.36328125 43.17578125 C24.372491 42.4007576 24.38170074 41.62573395 24.39118958 40.82722473 C24.37497082 36.6825189 24.37497082 36.6825189 22.66479492 33.00463867 C20.09600595 31.45447492 17.93153382 31.75570551 15 32 C14.01 32.33 13.02 32.66 12 33 C10.8081028 36.5756916 10.86473862 39.83417607 10.859375 43.5546875 C10.8410485 45.07162962 10.82147833 46.58855713 10.80078125 48.10546875 C10.77181545 50.49097408 10.74999989 52.87553782 10.74951172 55.26123047 C10.74617032 57.56822737 10.71159078 59.87306648 10.671875 62.1796875 C10.6789447 62.88817841 10.6860144 63.59666931 10.69329834 64.32662964 C10.60753508 67.83045323 10.01471535 69.97545704 8.20800781 72.98876953 C3.33442516 76.04421655 -1.39632237 75.40217782 -7 75 C-7.10250837 67.6026613 -7.17192421 60.2055097 -7.21972656 52.80761719 C-7.23968165 50.29778194 -7.26685553 47.7879922 -7.30175781 45.27832031 C-7.75418858 11.87828458 -7.75418858 11.87828458 0 0 Z " fill="#F4CF8F" transform="translate(150,77)"/>
<path d="M0 0 C2.23828125 2.50390625 2.23828125 2.50390625 4.3125 5.5625 C5.00988281 6.57441406 5.70726562 7.58632813 6.42578125 8.62890625 C6.94527344 9.41136719 7.46476562 10.19382812 8 11 C4.9243872 14.67573237 1.87180382 18.15971845 -1.625 21.4375 C-7.50115948 27.31365948 -9.42874275 32.62097669 -9.53125 40.8984375 C-7.48388321 52.85144657 0.06779432 64.24947555 5.52929688 74.94213867 C6.75897701 77.35342016 7.98139075 79.76827909 9.203125 82.18359375 C9.58430481 82.9241954 9.96548462 83.66479706 10.35821533 84.42784119 C13 89.66060697 13 89.66060697 13 93 C6.4 93 -0.2 93 -7 93 C-7.16276042 89.97265625 -7.32552083 86.9453125 -7.48828125 83.91796875 C-7.77490438 81.02047521 -7.77490438 81.02047521 -9.359375 79.140625 C-11.98162294 77.31753833 -13.90226149 77.55746593 -17 78 C-19.5368109 79.1982517 -19.5368109 79.1982517 -21 82 C-21.27030046 83.88074752 -21.46526063 85.77307686 -21.60546875 87.66796875 C-21.6830542 88.66465576 -21.76063965 89.66134277 -21.84057617 90.68823242 C-21.89318604 91.45111572 -21.9457959 92.21399902 -22 93 C-23.03930664 93.0093457 -24.07861328 93.01869141 -25.14941406 93.02832031 C-29.01133838 93.06824123 -32.8724678 93.13400478 -36.73388672 93.20751953 C-38.40403011 93.23571718 -40.07430665 93.25693779 -41.74462891 93.27099609 C-44.14815372 93.29244337 -46.55007983 93.33909845 -48.953125 93.390625 C-49.69806213 93.39185364 -50.44299927 93.39308228 -51.21051025 93.39434814 C-54.51188429 93.48728977 -56.55363951 93.65163924 -59.19506836 95.71313477 C-61.34311452 98.4347293 -61.5119589 99.70784896 -61.54589844 103.13574219 C-61.57547638 104.66687653 -61.57547638 104.66687653 -61.60565186 106.22894287 C-61.60749481 107.87131927 -61.60749481 107.87131927 -61.609375 109.546875 C-61.62591125 110.6732135 -61.64244751 111.799552 -61.65948486 112.96002197 C-61.7080613 116.55673625 -61.72935809 120.15302742 -61.75 123.75 C-61.77815147 126.18882348 -61.80807773 128.62762717 -61.83984375 131.06640625 C-61.9171638 137.04446733 -61.95759703 143.02118098 -62 149 C-70.25 149 -78.5 149 -87 149 C-87.11329216 135.92538795 -87.20488407 122.85110585 -87.25906086 109.77611256 C-87.28507263 103.70382657 -87.32031666 97.63189597 -87.37719727 91.55981445 C-87.43181737 85.69183075 -87.46148375 79.8241873 -87.47438622 73.95596886 C-87.4835724 71.72541644 -87.50151002 69.49488109 -87.52865028 67.26447487 C-87.71909617 50.95392451 -86.99606895 37.37251463 -75 25 C-62.38087082 13.06372413 -41.88817151 9.75508406 -25.60375977 5.17578125 C-19.5400261 3.4664583 -13.55448145 1.60939888 -7.59375 -0.43359375 C-4.52998905 -1.10263793 -2.93185557 -1.14252665 0 0 Z " fill="#EBE9EB" transform="translate(158,356)"/>
<path d="M0 0 C6.40947384 2.02850977 12.28379164 4.86410153 18.3125 7.8125 C19.42173828 8.33392578 20.53097656 8.85535156 21.67382812 9.39257812 C23.25260742 10.16698242 23.25260742 10.16698242 24.86328125 10.95703125 C25.82532471 11.42085205 26.78736816 11.88467285 27.77856445 12.36254883 C30 14 30 14 31.03149414 16.37695312 C30.98899765 19.91635069 29.82388958 21.2584956 27.6328125 24.01171875 C26.91222656 24.93404297 26.19164062 25.85636719 25.44921875 26.80664062 C24.68222656 27.75732422 23.91523438 28.70800781 23.125 29.6875 C21.62666227 31.58649679 20.12922031 33.48620081 18.6328125 35.38671875 C17.96137207 36.22420654 17.28993164 37.06169434 16.59814453 37.92456055 C14.36175348 40.82886246 13.35148218 43.18631106 13.40673828 46.92724609 C14.78173937 51.73126224 19.3842481 55.02205465 22.9375 58.3125 C24.61490512 59.91105818 26.29076765 61.51123711 27.96484375 63.11328125 C28.7137085 63.81235596 29.46257324 64.51143066 30.23413086 65.23168945 C32 67 32 67 33 69 C32.7326975 76.38183293 30.66960962 81.62926202 27.3125 88.13793945 C26.82628174 89.10818558 26.34006348 90.0784317 25.83911133 91.07807922 C24.23904959 94.26320764 22.61957452 97.43803691 21 100.61328125 C19.881473 102.83218559 18.76430531 105.05177562 17.6484375 107.27201843 C14.71487112 113.10118023 11.76527979 118.9220759 8.81152344 124.74102783 C4.0780344 134.06915871 -0.62697576 143.41171864 -5.33496094 152.75273705 C-6.98170738 156.01454795 -8.6348237 159.27306582 -10.2890625 162.53108215 C-11.29697983 164.52367948 -12.30479777 166.51632709 -13.3125 168.5090332 C-13.77487061 169.41558655 -14.23724121 170.32213989 -14.71362305 171.25616455 C-15.13426025 172.09007217 -15.55489746 172.9239798 -15.98828125 173.78315735 C-16.35477783 174.5052152 -16.72127441 175.22727304 -17.09887695 175.97121143 C-18.18921241 178.26908296 -18.18921241 178.26908296 -19 182 C-29.89 182 -40.78 182 -52 182 C-48.57521023 166.01764774 -48.57521023 166.01764774 -46.25 158.625 C-45.72171125 156.90393562 -45.19441105 155.18256757 -44.66796875 153.4609375 C-44.25877197 152.12820801 -44.25877197 152.12820801 -43.84130859 150.76855469 C-42.37429887 145.94096028 -40.96977727 141.09527922 -39.5625 136.25 C-39.12405762 134.74300537 -39.12405762 134.74300537 -38.67675781 133.20556641 C-38.08128924 131.15860244 -37.4860753 129.11156438 -36.89111328 127.06445312 C-35.43064018 122.04202619 -33.96509634 117.02107982 -32.5 112 C-31.91664166 110.00000729 -31.33330834 108.00000729 -30.75 106 C-13.25 46 -13.25 46 -12.37353516 42.99511719 C-11.79498447 41.01142244 -11.21653262 39.02769886 -10.63818359 37.04394531 C-9.10751914 31.79422433 -7.57473169 26.54513435 -6.0390625 21.296875 C-5.71873047 20.20117188 -5.39839844 19.10546875 -5.06835938 17.9765625 C-4.4531042 15.87221147 -3.83724733 13.76803623 -3.22070312 11.6640625 C-2.94419922 10.71789062 -2.66769531 9.77171875 -2.3828125 8.796875 C-2.13934082 7.96510742 -1.89586914 7.13333984 -1.64501953 6.27636719 C-1.05458796 4.19264879 -0.51185636 2.10423121 0 0 Z " fill="#D9D7DA" transform="translate(316,323)"/>
<path d="M0 0 C4.01763226 0.67209462 7.57782766 1.9145491 11.375 3.375 C35.94270717 12.23322457 66.85384726 12.83883449 90.953125 1.828125 C91.66114258 1.48168945 92.36916016 1.13525391 93.09863281 0.77832031 C95 0 95 0 98 0 C99.04971736 14.27948849 96.52396468 25.7971191 91.91064453 39.27880859 C90.56603224 43.29678407 89.40561118 47.3619438 88.25 51.4375 C87.53113771 53.97081186 86.7777502 56.48296595 86 59 C85.68446167 60.06202637 85.68446167 60.06202637 85.36254883 61.14550781 C84.24733207 64.55511734 83.58862148 66.53193955 80.73046875 68.8046875 C79.89128906 69.15789062 79.05210937 69.51109375 78.1875 69.875 C77.29546875 70.26042969 76.4034375 70.64585937 75.484375 71.04296875 C74.66453125 71.35878906 73.8446875 71.67460937 73 72 C71.989375 72.391875 70.97875 72.78375 69.9375 73.1875 C68.4834375 73.5896875 68.4834375 73.5896875 67 74 C66.38253906 74.18433594 65.76507813 74.36867188 65.12890625 74.55859375 C49.82883661 78.62925448 31.93556138 76.26978976 18 69 C14.51469093 66.81613825 13.39239664 65.22094378 12.32421875 61.265625 C12.05681885 60.31067139 11.78941895 59.35571777 11.51391602 58.37182617 C11.24119873 57.34162354 10.96848145 56.3114209 10.6875 55.25 C10.08829853 53.06315378 9.48667396 50.87697028 8.8828125 48.69140625 C8.42310059 47.01908936 8.42310059 47.01908936 7.95410156 45.31298828 C7.04707692 42.16346821 6.04737516 39.06746393 4.9921875 35.96484375 C0.83465923 23.61953021 -0.95732477 13.02265603 0 0 Z " fill="#F5D090" transform="translate(207,293)"/>
<path d="M0 0 C9.54332351 2.38583088 17.19749144 9.80463558 22.25390625 18.04296875 C26.0145573 25.21734733 27.30016453 31.76506633 27.22705078 39.78100586 C27.22734283 40.63058868 27.22763489 41.48017151 27.22793579 42.35549927 C27.22655105 45.14205413 27.2110304 47.92833604 27.1953125 50.71484375 C27.19157932 52.65539911 27.18873379 54.59595636 27.18673706 56.53651428 C27.17912459 61.62791202 27.15949667 66.71919448 27.1373291 71.81054688 C27.11681917 77.01235393 27.10772435 82.21417973 27.09765625 87.41601562 C27.07624847 97.61072755 27.04214144 107.80535416 27 118 C25.06734403 118.05219777 23.13428355 118.08957388 21.20117188 118.12060547 C20.1247644 118.14299286 19.04835693 118.16538025 17.93933105 118.18844604 C15 118 15 118 11.78125 116.0703125 C9.35230911 111.88358544 9.42644599 108.6281421 9.5 103.875 C9.07567998 82.33138462 0.94338512 63.07656692 -12 46 C-12.75796875 45.31421875 -13.5159375 44.6284375 -14.296875 43.921875 C-16 42 -16 42 -15.8984375 39.984375 C-14.96136257 37.91466167 -13.90479805 36.12703714 -12.625 34.25 C-8.25228489 27.41289342 -6.54173643 21.0700047 -6 13 C-5.195625 12.71125 -4.39125 12.4225 -3.5625 12.125 C-0.8673532 11.26737432 -0.8673532 11.26737432 0 9 C0.06950541 7.45976004 0.08452357 5.91665012 0.0625 4.375 C0.05347656 3.55773438 0.04445313 2.74046875 0.03515625 1.8984375 C0.02355469 1.27195313 0.01195312 0.64546875 0 0 Z " fill="#CA8F6C" transform="translate(342,34)"/>
<path d="M0 0 C1.47943027 0.29032661 2.95852623 0.58235679 4.4375 0.875 C5.36433594 1.05546875 6.29117188 1.2359375 7.24609375 1.421875 C8.85328284 1.75927072 10.45543592 2.12937527 12.03515625 2.578125 C25.16319642 6.23205268 39.01198359 4.02739996 52 1 C53.99735151 0.65114751 55.9966613 0.31264225 58 0 C55.94403691 7.73911308 53.71501775 15.42318032 51.4453125 23.1015625 C49.52246969 29.60820585 47.62664169 36.12271986 45.72973633 42.63696289 C44.22826071 47.79233955 42.72295275 52.94650692 41.20703125 58.09765625 C37.31100045 71.35657348 33.58143865 84.65262842 30 98 C29.34 98 28.68 98 28 98 C27.80889648 97.28046143 27.61779297 96.56092285 27.42089844 95.81958008 C22.97510271 78.84187969 22.97510271 78.84187969 17.9609375 62.02734375 C17.20014609 59.63054156 16.48401783 57.23248729 15.7890625 54.81640625 C15.57523926 54.09018066 15.36141602 53.36395508 15.14111328 52.61572266 C14.72603975 51.20548424 14.32014517 49.79249809 13.92529297 48.37646484 C12.69813506 44.27666526 11.47087618 41.57171804 8 39 C5.35815459 38.20318682 5.35815459 38.20318682 3 38 C2.32844651 35.73050898 1.6626037 33.4596039 1 31.1875 C0.62875 29.92292969 0.2575 28.65835937 -0.125 27.35546875 C-1 24 -1 24 -1 21 C-2.65 21 -4.3 21 -6 21 C-6 20.67 -6 20.34 -6 20 C-4.88625 19.731875 -3.7725 19.46375 -2.625 19.1875 C1.21840951 18.34190981 1.21840951 18.34190981 3 15 C2.64910724 9.73660862 1.56933815 5.02188207 0 0 Z " fill="#A3CAFC" transform="translate(227,379)"/>
<path d="M0 0 C8.25 0 16.5 0 25 0 C25.66 1.98 26.32 3.96 27 6 C28.43410368 6.24954005 29.87260072 6.47392642 31.3125 6.6875 C32.51326172 6.87892578 32.51326172 6.87892578 33.73828125 7.07421875 C36.04632712 7.20695392 36.04632712 7.20695392 37.73046875 5.76953125 C39.31254919 3.79378368 39.31254919 3.79378368 40 0 C48.25 0 56.5 0 65 0 C65 10.89 65 21.78 65 33 C43.55 33 22.1 33 0 33 C0 22.11 0 11.22 0 0 Z " fill="#A4CCFD" transform="translate(111,464)"/>
<path d="M0 0 C4.13562648 0.8271253 7.47501401 1.87500539 11.375 3.375 C35.94270717 12.23322457 66.85384726 12.83883449 90.953125 1.828125 C91.66114258 1.48168945 92.36916016 1.13525391 93.09863281 0.77832031 C95 0 95 0 98 0 C98 6.27 98 12.54 98 19 C97.505 18.01 97.505 18.01 97 17 C95.99582031 17.39832031 94.99164063 17.79664063 93.95703125 18.20703125 C64.22999555 29.80613163 32.24554243 30.24201794 2.66015625 17.734375 C2.11230469 17.49203125 1.56445312 17.2496875 1 17 C0.67 17.66 0.34 18.32 0 19 C0 12.73 0 6.46 0 0 Z " fill="#EBBF7F" transform="translate(207,293)"/>
<path d="M0 0 C0.6084375 0.4125 1.216875 0.825 1.84375 1.25 C8.19652146 5.43535532 14.66060131 8.96032112 21.515625 12.24609375 C24.94107317 13.90138922 28.0639123 15.56702707 31 18 C30.57847656 18.73605469 30.15695313 19.47210938 29.72265625 20.23046875 C29.17480469 21.20628906 28.62695312 22.18210937 28.0625 23.1875 C27.51722656 24.15042969 26.97195312 25.11335938 26.41015625 26.10546875 C25.09420667 28.80662842 24.42698113 31.04356101 24 34 C23.01 33.34 22.02 32.68 21 32 C17.5896024 31.78685015 15.25468201 31.915106 12 33 C10.8081028 36.5756916 10.86473862 39.83417607 10.859375 43.5546875 C10.8410485 45.07162962 10.82147833 46.58855713 10.80078125 48.10546875 C10.77181545 50.49097408 10.74999989 52.87553782 10.74951172 55.26123047 C10.74617032 57.56822737 10.71159078 59.87306648 10.671875 62.1796875 C10.6789447 62.88817841 10.6860144 63.59666931 10.69329834 64.32662964 C10.60753508 67.83045323 10.01471535 69.97545704 8.20800781 72.98876953 C3.33442516 76.04421655 -1.39632237 75.40217782 -7 75 C-7.10250837 67.6026613 -7.17192421 60.2055097 -7.21972656 52.80761719 C-7.23968165 50.29778194 -7.26685553 47.7879922 -7.30175781 45.27832031 C-7.75418858 11.87828458 -7.75418858 11.87828458 0 0 Z " fill="#9D6C4E" transform="translate(150,77)"/>
<path d="M0 0 C4.17097438 0.76609734 5.45429498 2.25410571 8.0625 5.5625 C8.43021245 8.4012401 8.54880804 10.58070151 8.375 13.375 C8.35244141 14.06787109 8.32988281 14.76074219 8.30664062 15.47460938 C8.24812661 17.17151573 8.1584548 18.86729861 8.0625 20.5625 C9.01511719 20.52769531 9.96773438 20.49289062 10.94921875 20.45703125 C12.20347656 20.42996094 13.45773437 20.40289062 14.75 20.375 C15.99136719 20.34019531 17.23273438 20.30539062 18.51171875 20.26953125 C22.28996857 20.58126803 24.11732479 21.21949816 27.0625 23.5625 C28.07408509 26.73213329 28.36924506 28.64226481 27.3125 31.8125 C26.0625 33.5625 26.0625 33.5625 23.0625 35.5625 C20.46004502 35.70471065 17.97132316 35.75052932 15.375 35.6875 C14.67310547 35.67847656 13.97121094 35.66945313 13.24804688 35.66015625 C11.51938475 35.63663704 9.79089855 35.60076713 8.0625 35.5625 C8.12050781 36.58730469 8.17851562 37.61210937 8.23828125 38.66796875 C8.28519957 40.02860011 8.33069752 41.38928096 8.375 42.75 C8.41689453 43.42353516 8.45878906 44.09707031 8.50195312 44.79101562 C8.59827103 48.74004988 8.20709638 50.3790858 5.734375 53.515625 C3.0625 55.5625 3.0625 55.5625 0 56.125 C-3.71283834 55.41403096 -4.69708624 54.59589603 -6.9375 51.5625 C-7.2281124 48.66800051 -7.31936045 46.18300065 -7.1875 43.3125 C-7.16945313 42.56742187 -7.15140625 41.82234375 -7.1328125 41.0546875 C-7.08585649 39.22340299 -7.01411652 37.39278351 -6.9375 35.5625 C-8.60039062 35.63210938 -8.60039062 35.63210938 -10.296875 35.703125 C-11.76038968 35.74065102 -13.22393356 35.77705029 -14.6875 35.8125 C-15.41710937 35.84601563 -16.14671875 35.87953125 -16.8984375 35.9140625 C-20.44697276 35.97858132 -22.50739637 35.87358124 -25.421875 33.765625 C-27.63760456 30.54482224 -27.48254673 28.3778271 -26.9375 24.5625 C-25.421875 22.359375 -25.421875 22.359375 -22.9375 20.5625 C-20.04300051 20.2718876 -17.55800065 20.18063955 -14.6875 20.3125 C-13.56988281 20.33957031 -13.56988281 20.33957031 -12.4296875 20.3671875 C-10.59840299 20.41414351 -8.76778351 20.48588348 -6.9375 20.5625 C-6.98390625 19.45390625 -7.0303125 18.3453125 -7.078125 17.203125 C-7.11565102 15.73961032 -7.15205029 14.27606644 -7.1875 12.8125 C-7.22101563 12.08289063 -7.25453125 11.35328125 -7.2890625 10.6015625 C-7.35399747 7.03013899 -7.25751385 4.99578101 -5.10546875 2.08203125 C-2.9375 0.5625 -2.9375 0.5625 0 0 Z " fill="#040404" transform="translate(387.9375,432.4375)"/>
<path d="M0 0 C2.23593053 1.11000822 4.20612805 2.36176662 6.23828125 3.80859375 C12.14579686 7.80369854 22.10753545 6.78309474 29 6 C33.04296683 4.70381735 36.95122294 3.04877706 40 0 C47.08571429 -0.45714286 47.08571429 -0.45714286 50 1 C51.71713199 4.43426398 52.11241374 7.3763289 51 11 C45.60404533 17.70775317 37.21942884 20.5842929 29 22 C15.37687601 23.39914709 3.10388981 22.45532199 -8.3125 14.1875 C-10.74973852 11.85307303 -11.45840339 10.18145365 -11.625 6.8125 C-11 3 -11 3 -10 1 C-6.6789458 -0.6605271 -3.56159571 -0.70344684 0 0 Z " fill="#040302" transform="translate(236,217)"/>
<path d="M0 0 C1.47943027 0.29032661 2.95852623 0.58235679 4.4375 0.875 C5.36433594 1.05546875 6.29117188 1.2359375 7.24609375 1.421875 C8.85328284 1.75927072 10.45543592 2.12937527 12.03515625 2.578125 C25.16319642 6.23205268 39.01198359 4.02739996 52 1 C53.99735151 0.65114751 55.9966613 0.31264225 58 0 C57.26740872 2.70081985 56.53029981 5.39959792 55.7734375 8.09375 C54.99196988 10.8697268 54.99196988 10.8697268 54.6015625 13.21875 C54.25 15.0625 54.25 15.0625 53 18 C39.42308918 23.97384076 18.81643897 22.45915171 5 18 C4.34 17.67 3.68 17.34 3 17 C3.0928125 15.576875 3.0928125 15.576875 3.1875 14.125 C3.21810541 9.15672169 1.57575543 4.6616098 0 0 Z " fill="#8AB2E8" transform="translate(227,379)"/>
<path d="M0 0 C0.84175781 -0.00708984 1.68351562 -0.01417969 2.55078125 -0.02148438 C7.79571965 0.03220397 11.61271945 0.55021945 15.5 4.4375 C15.83859537 8.02661095 16.06884907 10.49831517 14.16796875 13.63671875 C9.88964891 16.52442804 5.5382566 16.01561251 0.5 15.9375 C-0.49773437 15.95296875 -1.49546875 15.9684375 -2.5234375 15.984375 C-9.75647752 15.94559194 -9.75647752 15.94559194 -13.15234375 13.625 C-15.16681245 10.35513777 -15.10322302 8.19088767 -14.5 4.4375 C-10.2360313 -0.37555119 -5.99781242 -0.14236768 0 0 Z " fill="#050503" transform="translate(303.5,135.5625)"/>
<path d="M0 0 C0.80308594 -0.020625 1.60617188 -0.04125 2.43359375 -0.0625 C7.1907828 -0.09384886 10.22442526 0.22131843 14.125 3.25 C15.125 4.25 15.125 4.25 15.4375 7.5625 C15.125 11.25 15.125 11.25 13.79296875 13.44921875 C9.51464891 16.33692804 5.1632566 15.82811251 0.125 15.75 C-0.87273437 15.76546875 -1.87046875 15.7809375 -2.8984375 15.796875 C-10.12764665 15.75811248 -10.12764665 15.75811248 -13.53515625 13.44140625 C-15.49294614 10.23930676 -15.34220857 7.92092445 -14.875 4.25 C-11.35702695 -0.77567578 -5.50111895 0.03498327 0 0 Z " fill="#050403" transform="translate(207.875,135.75)"/>
<path d="M0 0 C2.5 1.8125 2.5 1.8125 4 5 C4.65799679 10.04464208 4.68883699 14.43446139 2.625 19.125 C0.4511055 21.63333981 -0.55614535 21.95175493 -3.875 22.3125 C-7 22 -7 22 -9.16796875 20.453125 C-11.70994862 17.04936518 -11.49915971 14.64269228 -11.4375 10.4375 C-11.44458984 9.76525391 -11.45167969 9.09300781 -11.45898438 8.40039062 C-11.42210948 5.54400431 -11.31807852 3.48002704 -9.71875 1.06640625 C-6.65665533 -0.83348431 -3.41094278 -0.69316946 0 0 Z " fill="#070604" transform="translate(308,161)"/>
<path d="M0 0 C1.71875 1.06640625 1.71875 1.06640625 3 3 C3.32632361 5.58413022 3.46469974 7.85847049 3.4375 10.4375 C3.45683594 11.75621094 3.47617188 13.07492188 3.49609375 14.43359375 C3 18 3 18 1.16015625 20.44140625 C-1 22 -1 22 -4 22.5 C-7.63326668 21.89445555 -8.74144325 20.8441085 -11 18 C-12.97543199 14.04913603 -12.4282081 9.30690467 -12 5 C-9.23402089 -0.8777056 -5.91943789 -0.75167465 0 0 Z " fill="#070604" transform="translate(212,161)"/>
<path d="M0 0 C2.73647359 2.73647359 4.00701628 4.60875357 5.6875 8 C6.12449219 8.86625 6.56148437 9.7325 7.01171875 10.625 C8 13 8 13 8 16 C5.36 16 2.72 16 0 16 C0 10.72 0 5.44 0 0 Z " fill="#D0CED0" transform="translate(191,489)"/>
</svg>
